<svg xmlns="http://www.w3.org/2000/svg" xmlns:xlink="http://www.w3.org/1999/xlink" width="1764" height="1351" style="">
    <rect id="backgroundrect" width="100%" height="100%" x="0" y="0" fill="none" stroke="none" />
    <title>star-bg</title>
    <defs>
        <path id="a" d="M6.23.067V5.69H.61V.066h5.62z" />
        <path id="c" d="M.67.697h9.937v9.938H.67z" />
        <path id="e" d="M6.23.067V5.69H.61V.066h5.62z" />
        <linearGradient id="svg_83" x1="0.0" y1="0.0" x2="1" y2="0.0">
            <stop stop-color="#191c20" stop-opacity="1" offset="0" />
            <stop stop-color="#e6e3df" stop-opacity="1" offset="1" />
        </linearGradient>
        <linearGradient id="svg_84" x1="0.0" y1="0.0" x2="0" y2="1">
            <stop stop-color="#191c20" stop-opacity="1" offset="0" />
            <stop stop-color="#e6e3df" stop-opacity="1" offset="1" />
        </linearGradient>
        <linearGradient id="Gradient1" x1="0" x2="0" y1="0" y2="1">
            <stop offset="0%" stop-color="stop-color:rgb(25,28,32);stop-opacity:1"/>
            <stop offset="100%" stop-color="stop-color:rgb(36,41,46);stop-opacity:1"/>
        </linearGradient>
    </defs>
    <rect x="0" y="0" width="1764" height="1351" fill="url(#Gradient1)"/>
    <g class="currentLayer" style="">
        <title>Layer 1</title>
        <g fill="url(#svg_83)" fill-rule="evenodd" id="svg_1" class="" fill-opacity="1">
            <path d="M710.0017706985706,82.04817449840554 l2.778036545753479,1.519049736738205 a0.39715036249160773,0.39715036249160773 0 0 1 0,0.6955171322822572 l-2.778036545753479,1.5200577325820923 a0.4031983375549317,0.4031983375549317 0 0 0 -0.15724735164642337,0.15724735164642337 l-1.519049736738205,2.778036545753479 a0.3961423666477204,0.3961423666477204 0 0 1 -0.6955171322822572,0 l-1.5200577325820923,-2.7770285499095917 a0.39815835833549507,0.39815835833549507 0 0 0 -0.1582553474903107,-0.1612793350219727 l-2.7770285499095917,-1.51703374505043 a0.39715036249160773,0.39715036249160773 0 0 1 0,-0.6955171322822572 l2.7770285499095917,-1.5200577325820923 a0.3961423666477204,0.3961423666477204 0 0 0 0.1582553474903107,-0.1582553474903107 l1.519049736738205,-2.7760205540657044 a0.3961423666477204,0.3961423666477204 0 0 1 0.6955171322822572,0 l1.5200577325820923,2.7760205540657044 c0.03628785037994385,0.06753572154045107 0.09071962594985965,0.1209595012664795 0.15724735164642337,0.1582553474903107 " fill="url(#svg_83)" style="mix-blend-mode:lighten" id="svg_2" />
            <path d="M227.2513931482071,157.24768843993195 l1.3708743476867677,0.7509569036960603 a0.39815835833549507,0.39815835833549507 0 0 1 0,0.6975331239700319 l-1.3708743476867677,0.7489409120082856 a0.4031983375549317,0.4031983375549317 0 0 0 -0.15724735164642337,0.1582553474903107 l-0.7489409120082856,1.3708743476867677 a0.39715036249160773,0.39715036249160773 0 0 1 -0.6975331239700319,0 l-0.7489409120082856,-1.3708743476867677 a0.39815835833549507,0.39815835833549507 0 0 0 -0.1582553474903107,-0.1582553474903107 l-1.3708743476867677,-0.7489409120082856 a0.39815835833549507,0.39815835833549507 0 0 1 0,-0.6975331239700319 l1.3708743476867677,-0.7499489078521729 a0.3961423666477204,0.3961423666477204 0 0 0 0.1582553474903107,-0.15623935580253603 l0.7489409120082856,-1.3708743476867677 a0.39815835833549507,0.39815835833549507 0 0 1 0.6975331239700319,0 l0.7499489078521729,1.3708743476867677 c0.03729584622383118,0.06652772569656373 0.0927356176376343,0.1209595012664795 0.1582553474903107,0.15724735164642337 " fill="url(#svg_83)" style="mix-blend-mode:lighten" id="svg_3" />
            <path d="M399.02900488426627,98.05817248686799 L397.54523500206415,99.53992637738236 M403.0589722681279,94.02618911131867 l-1.4817538905143737,1.4837698822021483 M399.1005725891823,98.22247580942162 a1.8668083028793336,1.8668083028793336 0 1 0 2.6409491109848022,-2.6409491109848022 a1.8668083028793336,1.8668083028793336 0 1 0 -2.6409491109848022,2.6409491109848022 z" stroke="#7B63AB" stroke-width="1.097" stroke-linecap="round" stroke-linejoin="round" id="svg_4" fill="url(#svg_83)" />
            <path d="M955.9527566070789,128.41598331722267 l2.778036545753479,1.519049736738205 a0.39715036249160773,0.39715036249160773 0 0 1 0,0.6955171322822572 l-2.778036545753479,1.519049736738205 a0.4031983375549317,0.4031983375549317 0 0 0 -0.15724735164642337,0.1612793350219727 l-1.519049736738205,2.7760205540657044 a0.3961423666477204,0.3961423666477204 0 0 1 -0.6955171322822572,0 l-1.5200577325820923,-2.778036545753479 a0.39815835833549507,0.39815835833549507 0 0 0 -0.1582553474903107,-0.1582553474903107 l-2.7770285499095917,-1.51703374505043 a0.39715036249160773,0.39715036249160773 0 0 1 0,-0.6955171322822572 l2.7770285499095917,-1.5200577325820923 a0.3961423666477204,0.3961423666477204 0 0 0 0.1582553474903107,-0.15724735164642337 l1.519049736738205,-2.7770285499095917 a0.3961423666477204,0.3961423666477204 0 0 1 0.6955171322822572,0 l1.5200577325820923,2.7770285499095917 c0.03628785037994385,0.06652772569656373 0.09071962594985965,0.1209595012664795 0.15724735164642337,0.15724735164642337 " fill="url(#svg_83)" style="mix-blend-mode:lighten" id="svg_5" />
            <path d="M1140.4159960384602,167.7278212288285 l2.7770285499095917,1.519049736738205 a0.39715036249160773,0.39715036249160773 0 0 1 0,0.6955171322822572 l-2.7770285499095917,1.5200577325820923 a0.40017435002326973,0.40017435002326973 0 0 0 -0.15724735164642337,0.15724735164642337 l-1.5180417408943176,2.778036545753479 a0.3961423666477204,0.3961423666477204 0 0 1 -0.6975331239700319,0 l-1.5180417408943176,-2.778036545753479 a0.40521432924270634,0.40521432924270634 0 0 0 -0.1612793350219727,-0.15724735164642337 l-2.775012558221817,-1.519049736738205 a0.3961423666477204,0.3961423666477204 0 0 1 0,-0.6955171322822572 l2.7770285499095917,-1.5200577325820923 a0.40521432924270634,0.40521432924270634 0 0 0 0.15926334333419803,-0.15724735164642337 l1.5180417408943176,-2.7770285499095917 a0.39715036249160773,0.39715036249160773 0 0 1 0.6955171322822572,0 l1.5200577325820923,2.778036545753479 c0.03729584622383118,0.06652772569656373 0.09071962594985965,0.1209595012664795 0.1582553474903107,0.1582553474903107 " fill="url(#svg_83)" style="mix-blend-mode:lighten" id="svg_6" />
            <path d="M1077.999885389113,90.71996274336823 l1.3708743476867677,0.7509569036960603 a0.39815835833549507,0.39815835833549507 0 0 1 0,0.6975331239700319 l-1.3708743476867677,0.7489409120082856 a0.4031983375549317,0.4031983375549317 0 0 0 -0.15724735164642337,0.1582553474903107 l-0.7489409120082856,1.3708743476867677 a0.39715036249160773,0.39715036249160773 0 0 1 -0.6975331239700319,0 l-0.7489409120082856,-1.3708743476867677 a0.39815835833549507,0.39815835833549507 0 0 0 -0.1582553474903107,-0.1582553474903107 l-1.3708743476867677,-0.7489409120082856 a0.39815835833549507,0.39815835833549507 0 0 1 0,-0.6975331239700319 l1.3708743476867677,-0.7499489078521729 a0.3961423666477204,0.3961423666477204 0 0 0 0.1582553474903107,-0.15623935580253603 l0.7489409120082856,-1.3708743476867677 a0.39815835833549507,0.39815835833549507 0 0 1 0.6975331239700319,0 l0.7499489078521729,1.3708743476867677 c0.03729584622383118,0.06652772569656373 0.0927356176376343,0.1209595012664795 0.1582553474903107,0.15724735164642337 " fill="url(#svg_83)" style="mix-blend-mode:lighten" id="svg_7" />
            <path d="M1202.7454190452333,245.13182208093653 a2.930243918180466,2.930243918180466 0 1 1 -5.861495832204819,-0.0030239875316619884 a2.930243918180466,2.930243918180466 0 0 1 5.861495832204819,0.0030239875316619884 M102.18027683451119,310.86222306498536 l2.778036545753479,1.519049736738205 a0.39715036249160773,0.39715036249160773 0 0 1 0,0.6975331239700319 l-2.778036545753479,1.519049736738205 a0.4031983375549317,0.4031983375549317 0 0 0 -0.15724735164642337,0.15724735164642337 l-1.519049736738205,2.7770285499095917 a0.3961423666477204,0.3961423666477204 0 0 1 -0.6955171322822572,0 l-1.5200577325820923,-2.7770285499095917 a0.39815835833549507,0.39815835833549507 0 0 0 -0.1582553474903107,-0.15724735164642337 l-2.7770285499095917,-1.519049736738205 a0.39715036249160773,0.39715036249160773 0 0 1 0,-0.6975331239700319 l2.7770285499095917,-1.519049736738205 a0.3961423666477204,0.3961423666477204 0 0 0 0.1582553474903107,-0.15623935580253603 l1.519049736738205,-2.7770285499095917 a0.3961423666477204,0.3961423666477204 0 0 1 0.6955171322822572,0 l1.5200577325820923,2.778036545753479 c0.03628785037994385,0.06753572154045107 0.09071962594985965,0.1209595012664795 0.15724735164642337,0.15724735164642337 " fill="url(#svg_83)" style="mix-blend-mode:lighten" id="svg_8" />
            <path d="M193.98753029992523,445.53449979170813 l1.3708743476867677,0.7509569036960603 a0.39815835833549507,0.39815835833549507 0 0 1 0,0.6975331239700319 l-1.3708743476867677,0.7489409120082856 a0.4031983375549317,0.4031983375549317 0 0 0 -0.15724735164642337,0.1582553474903107 l-0.7489409120082856,1.3708743476867677 a0.39715036249160773,0.39715036249160773 0 0 1 -0.6975331239700319,0 l-0.7489409120082856,-1.3708743476867677 a0.39815835833549507,0.39815835833549507 0 0 0 -0.1582553474903107,-0.1582553474903107 l-1.3708743476867677,-0.7489409120082856 a0.39815835833549507,0.39815835833549507 0 0 1 0,-0.6975331239700319 l1.3708743476867677,-0.7499489078521729 a0.3961423666477204,0.3961423666477204 0 0 0 0.1582553474903107,-0.15623935580253603 l0.7489409120082856,-1.3708743476867677 a0.39815835833549507,0.39815835833549507 0 0 1 0.6975331239700319,0 l0.7499489078521729,1.3708743476867677 c0.03729584622383118,0.06652772569656373 0.0927356176376343,0.1209595012664795 0.1582553474903107,0.15724735164642337 " fill="url(#svg_83)" style="mix-blend-mode:lighten" id="svg_9" />
            <path d="M1661.5498473282094,520.5253585935498 l2.7770285499095917,1.5200577325820923 a0.39815835833549507,0.39815835833549507 0 0 1 0,0.6975331239700319 l-2.7770285499095917,1.5180417408943176 a0.3931183791160584,0.3931183791160584 0 0 0 -0.15724735164642337,0.1582553474903107 l-1.5180417408943176,2.7760205540657044 a0.3961423666477204,0.3961423666477204 0 0 1 -0.6975331239700319,0 l-1.5180417408943176,-2.7770285499095917 a0.3931183791160584,0.3931183791160584 0 0 0 -0.1612793350219727,-0.15926334333419803 l-2.775012558221817,-1.5180417408943176 a0.39715036249160773,0.39715036249160773 0 0 1 0,-0.6975331239700319 l2.7770285499095917,-1.5200577325820923 a0.3931183791160584,0.3931183791160584 0 0 0 0.15926334333419803,-0.15623935580253603 l1.5180417408943176,-2.7770285499095917 a0.3961423666477204,0.3961423666477204 0 0 1 0.6955171322822572,0 l1.5200577325820923,2.7770285499095917 a0.3931183791160584,0.3931183791160584 0 0 0 0.1582553474903107,0.15724735164642337 M1374.169224240088,90.64436305507668 l1.3103945970535278,0.7156770491600037 c0.2620789194107056,0.1451514015197754 0.2620789194107056,0.5241578388214112 0,0.6652772569656373 l-1.3103945970535278,0.7187010366916657 a0.38303842067718513,0.38303842067718513 0 0 0 -0.1511993765830994,0.14918338489532473 l-0.7156770491600037,1.3103945970535278 a0.38001443314552313,0.38001443314552313 0 0 1 -0.6652772569656373,0 l-0.7156770491600037,-1.3103945970535278 a0.3890863957405091,0.3890863957405091 0 0 0 -0.15321536827087404,-0.14918338489532473 l-1.3103945970535278,-0.7176930408477784 a0.38001443314552313,0.38001443314552313 0 0 1 0,-0.6652772569656373 l1.3103945970535278,-0.7156770491600037 a0.3931183791160584,0.3931183791160584 0 0 0 0.1511993765830994,-0.1511993765830994 l0.7156770491600037,-1.3103945970535278 a0.3790064373016358,0.3790064373016358 0 0 1 0.667293248653412,0 l0.7156770491600037,1.3103945970535278 a0.38707040405273446,0.38707040405273446 0 0 0 0.1511993765830994,0.1511993765830994 " fill="url(#svg_83)" style="mix-blend-mode:lighten" id="svg_10" />
            <path d="M1633.4055953710313,374.9747907195951 l1.3708743476867677,0.7509569036960603 a0.39815835833549507,0.39815835833549507 0 0 1 0,0.6975331239700319 l-1.3708743476867677,0.7489409120082856 a0.4031983375549317,0.4031983375549317 0 0 0 -0.15724735164642337,0.1582553474903107 l-0.7489409120082856,1.3708743476867677 a0.39715036249160773,0.39715036249160773 0 0 1 -0.6975331239700319,0 l-0.7489409120082856,-1.3708743476867677 a0.39815835833549507,0.39815835833549507 0 0 0 -0.1582553474903107,-0.1582553474903107 l-1.3708743476867677,-0.7489409120082856 a0.39815835833549507,0.39815835833549507 0 0 1 0,-0.6975331239700319 l1.3708743476867677,-0.7499489078521729 a0.3961423666477204,0.3961423666477204 0 0 0 0.1582553474903107,-0.15623935580253603 l0.7489409120082856,-1.3708743476867677 a0.39815835833549507,0.39815835833549507 0 0 1 0.6975331239700319,0 l0.7499489078521729,1.3708743476867677 c0.03729584622383118,0.06652772569656373 0.0927356176376343,0.1209595012664795 0.1582553474903107,0.15724735164642337 " fill="url(#svg_83)" style="mix-blend-mode:lighten" id="svg_11" />
            <path stroke="#E98333" stroke-width="1.097" stroke-linecap="round" stroke-linejoin="round" d="M400.56922253372613,378.16812155303006 l3.582417229175568,-0.8951003093719484 l-0.8940923135280611,3.582417229175568 z" id="svg_12" fill="url(#svg_83)" />
            <path fill="url(#svg_83)" style="mix-blend-mode:lighten" d="M512.6845682659382,496.2346747475529 l2.0341356129646297,1.1128274116516115 l-2.0341356129646297,1.111819415807724 l-1.1128274116516115,2.0341356129646297 l-1.1128274116516115,-2.0341356129646297 l-2.0341356129646297,-1.111819415807724 l2.0341356129646297,-1.1128274116516115 l1.1128274116516115,-2.0341356129646297 z" id="svg_13" />
            <path d="M521.508563883328,29.632390616264423 l2.7760205540657044,1.519049736738205 a0.39715036249160773,0.39715036249160773 0 0 1 0,0.6955171322822572 l-2.7770285499095917,1.5200577325820923 a0.40017435002326973,0.40017435002326973 0 0 0 -0.15926334333419803,0.15724735164642337 l-1.5180417408943176,2.778036545753479 a0.3961423666477204,0.3961423666477204 0 0 1 -0.6975331239700319,0 l-1.519049736738205,-2.778036545753479 a0.40521432924270634,0.40521432924270634 0 0 0 -0.1582553474903107,-0.15724735164642337 l-2.7770285499095917,-1.519049736738205 a0.3961423666477204,0.3961423666477204 0 0 1 0,-0.6955171322822572 l2.7770285499095917,-1.5200577325820923 a0.40521432924270634,0.40521432924270634 0 0 0 0.1582553474903107,-0.15724735164642337 l1.5200577325820923,-2.7770285499095917 a0.39715036249160773,0.39715036249160773 0 0 1 0.6955171322822572,0 l1.519049736738205,2.778036545753479 c0.03729584622383118,0.06652772569656373 0.09071962594985965,0.1209595012664795 0.1582553474903107,0.1582553474903107 " fill="url(#svg_83)" style="mix-blend-mode:lighten" id="svg_14" />
            <path d="M645.3710931802029,193.06782874831208 l-0.8537724797725679,-1.6127933502197267 a0.44351817131042487,0.44351817131042487 0 0 0 -0.18143925189971927,-0.18143925189971927 l-1.6127933502197267,-0.8547804756164552 a0.4374701962471009,0.4374701962471009 0 0 1 0,-0.7741408081054689 l1.6127933502197267,-0.8537724797725679 a0.44553416299819953,0.44553416299819953 0 0 0 0.18143925189971927,-0.18143925189971927 l0.8537724797725679,-1.6127933502197267 a0.4384781920909882,0.4384781920909882 0 0 1 0.7761567997932435,0 l0.8517564880847932,1.6127933502197267 a0.44351817131042487,0.44351817131042487 0 0 0 0.18143925189971927,0.18143925189971927 l1.6127933502197267,0.8537724797725679 c0.31247871160507207,0.16430332255363467 0.31247871160507207,0.6098374855518341 0,0.7741408081054689 l-1.6127933502197267,0.8537724797725679 a0.43948618793487554,0.43948618793487554 0 0 0 -0.18143925189971927,0.18143925189971927 l-0.8527644839286805,1.6127933502197267 a0.4384781920909882,0.4384781920909882 0 0 1 -0.7761567997932435,0 z" stroke="#7B63AB" stroke-width="1.097" stroke-linecap="round" stroke-linejoin="round" id="svg_15" fill="url(#svg_83)" />
            <path d="M585.0102860565418,151.59988772663124 l2.778036545753479,1.519049736738205 a0.39715036249160773,0.39715036249160773 0 0 1 0,0.6955171322822572 l-2.778036545753479,1.519049736738205 a0.4031983375549317,0.4031983375549317 0 0 0 -0.15724735164642337,0.1612793350219727 l-1.519049736738205,2.7760205540657044 a0.3961423666477204,0.3961423666477204 0 0 1 -0.6955171322822572,0 l-1.5200577325820923,-2.778036545753479 a0.39815835833549507,0.39815835833549507 0 0 0 -0.1582553474903107,-0.1582553474903107 l-2.7770285499095917,-1.51703374505043 a0.39715036249160773,0.39715036249160773 0 0 1 0,-0.6955171322822572 l2.7770285499095917,-1.5200577325820923 a0.3961423666477204,0.3961423666477204 0 0 0 0.1582553474903107,-0.15724735164642337 l1.519049736738205,-2.7770285499095917 a0.3961423666477204,0.3961423666477204 0 0 1 0.6955171322822572,0 l1.5200577325820923,2.7770285499095917 c0.03628785037994385,0.06652772569656373 0.09071962594985965,0.1209595012664795 0.15724735164642337,0.15724735164642337 " fill="url(#svg_83)" style="mix-blend-mode:lighten" id="svg_16" />
            <path d="M165.6860309911007,117.32802903446208 l2.7760205540657044,1.519049736738205 a0.39715036249160773,0.39715036249160773 0 0 1 0,0.6955171322822572 l-2.778036545753479,1.5200577325820923 a0.40017435002326973,0.40017435002326973 0 0 0 -0.15724735164642337,0.15724735164642337 l-1.519049736738205,2.778036545753479 a0.3961423666477204,0.3961423666477204 0 0 1 -0.6955171322822572,0 l-1.519049736738205,-2.778036545753479 a0.40521432924270634,0.40521432924270634 0 0 0 -0.1612793350219727,-0.15724735164642337 l-2.7740045623779297,-1.519049736738205 a0.3961423666477204,0.3961423666477204 0 0 1 0,-0.6955171322822572 l2.7760205540657044,-1.5200577325820923 a0.40521432924270634,0.40521432924270634 0 0 0 0.1582553474903107,-0.15724735164642337 l1.5200577325820923,-2.7770285499095917 a0.39715036249160773,0.39715036249160773 0 0 1 0.6955171322822572,0 l1.519049736738205,2.778036545753479 c0.03628785037994385,0.06652772569656373 0.09071962594985965,0.1209595012664795 0.15724735164642337,0.1582553474903107 " fill="url(#svg_83)" style="mix-blend-mode:lighten" id="svg_17" />
            <path d="M288.4931886394257,46.556640835132676 a2.930243918180466,2.930243918180466 0 1 1 -5.861495832204819,-0.0030239875316619884 a2.930243918180466,2.930243918180466 0 0 1 5.861495832204819,0.0030239875316619884 " fill="url(#svg_83)" style="mix-blend-mode:lighten" id="svg_18" />
            <path d="M37.54959931614343,196.09181627997407 l-0.8537724797725679,-1.6127933502197267 a0.44351817131042487,0.44351817131042487 0 0 0 -0.18143925189971927,-0.18143925189971927 l-1.6127933502197267,-0.8547804756164552 a0.4374701962471009,0.4374701962471009 0 0 1 0,-0.7741408081054689 l1.6127933502197267,-0.8537724797725679 a0.44553416299819953,0.44553416299819953 0 0 0 0.18143925189971927,-0.18143925189971927 l0.8537724797725679,-1.6127933502197267 a0.4384781920909882,0.4384781920909882 0 0 1 0.7761567997932435,0 l0.8517564880847932,1.6127933502197267 a0.44351817131042487,0.44351817131042487 0 0 0 0.18143925189971927,0.18143925189971927 l1.6127933502197267,0.8537724797725679 c0.31247871160507207,0.16430332255363467 0.31247871160507207,0.6098374855518341 0,0.7741408081054689 l-1.6127933502197267,0.8537724797725679 a0.43948618793487554,0.43948618793487554 0 0 0 -0.18143925189971927,0.18143925189971927 l-0.8527644839286805,1.6127933502197267 a0.4384781920909882,0.4384781920909882 0 0 1 -0.7761567997932435,0 z" stroke="#7B63AB" stroke-width="1.097" stroke-linecap="round" stroke-linejoin="round" id="svg_19" fill="url(#svg_83)" />
            <path d="M1690.781726800942,252.39846411952027 l2.7770285499095917,1.519049736738205 a0.39815835833549507,0.39815835833549507 0 0 1 0,0.6975331239700319 l-2.7770285499095917,1.519049736738205 a0.3931183791160584,0.3931183791160584 0 0 0 -0.15724735164642337,0.15724735164642337 l-1.5180417408943176,2.7770285499095917 a0.3961423666477204,0.3961423666477204 0 0 1 -0.6975331239700319,0 l-1.5180417408943176,-2.7770285499095917 a0.3931183791160584,0.3931183791160584 0 0 0 -0.1612793350219727,-0.15724735164642337 l-2.775012558221817,-1.519049736738205 a0.39715036249160773,0.39715036249160773 0 0 1 0,-0.6975331239700319 l2.7770285499095917,-1.519049736738205 a0.3931183791160584,0.3931183791160584 0 0 0 0.15926334333419803,-0.15623935580253603 l1.5180417408943176,-2.7770285499095917 a0.3961423666477204,0.3961423666477204 0 0 1 0.6955171322822572,0 l1.5200577325820923,2.778036545753479 a0.3931183791160584,0.3931183791160584 0 0 0 0.1582553474903107,0.15724735164642337 " fill="url(#svg_83)" style="mix-blend-mode:lighten" id="svg_20" />
            <path d="M1636.4295829026933,214.7054675331975 l1.3708743476867677,0.7489409120082856 a0.39815835833549507,0.39815835833549507 0 0 1 0,0.6975331239700319 l-1.3708743476867677,0.7499489078521729 a0.40017435002326973,0.40017435002326973 0 0 0 -0.15724735164642337,0.1582553474903107 l-0.7489409120082856,1.3708743476867677 a0.39815835833549507,0.39815835833549507 0 0 1 -0.6975331239700319,0 l-0.7489409120082856,-1.3708743476867677 a0.3961423666477204,0.3961423666477204 0 0 0 -0.1582553474903107,-0.15724735164642337 l-1.3708743476867677,-0.7489409120082856 a0.39815835833549507,0.39815835833549507 0 0 1 0,-0.6975331239700319 l1.3708743476867677,-0.7489409120082856 a0.39815835833549507,0.39815835833549507 0 0 0 0.1582553474903107,-0.1582553474903107 l0.7489409120082856,-1.3708743476867677 a0.39815835833549507,0.39815835833549507 0 0 1 0.6975331239700319,0 l0.7499489078521729,1.3708743476867677 a0.4031983375549317,0.4031983375549317 0 0 0 0.1582553474903107,0.1582553474903107 " fill="url(#svg_83)" style="mix-blend-mode:lighten" id="svg_21" />
            <path d="M1611.0482475536103,38.228579172935575 l1.3103945970535278,0.7156770491600037 c0.2620789194107056,0.14615939736366274 0.2620789194107056,0.5241578388214112 0,0.667293248653412 l-1.3103945970535278,0.7156770491600037 a0.38303842067718513,0.38303842067718513 0 0 0 -0.1511993765830994,0.1511993765830994 l-0.7156770491600037,1.3103945970535278 a0.38001443314552313,0.38001443314552313 0 0 1 -0.6652772569656373,0 l-0.7156770491600037,-1.3103945970535278 a0.3890863957405091,0.3890863957405091 0 0 0 -0.15321536827087404,-0.1511993765830994 l-1.3103945970535278,-0.7156770491600037 a0.38001443314552313,0.38001443314552313 0 0 1 0,-0.667293248653412 l1.3103945970535278,-0.7156770491600037 a0.3931183791160584,0.3931183791160584 0 0 0 0.1511993765830994,-0.1511993765830994 l0.7156770491600037,-1.3083786053657531 a0.3790064373016358,0.3790064373016358 0 0 1 0.667293248653412,0 l0.7156770491600037,1.3083786053657531 a0.38707040405273446,0.38707040405273446 0 0 0 0.1511993765830994,0.1511993765830994 " fill="url(#svg_83)" style="mix-blend-mode:lighten" id="svg_22" />
            <path d="M1662.6374748437638,106.8478962455655 l1.3708743476867677,0.7509569036960603 a0.39815835833549507,0.39815835833549507 0 0 1 0,0.6975331239700319 l-1.3708743476867677,0.7489409120082856 a0.4031983375549317,0.4031983375549317 0 0 0 -0.15724735164642337,0.1582553474903107 l-0.7489409120082856,1.3708743476867677 a0.39715036249160773,0.39715036249160773 0 0 1 -0.6975331239700319,0 l-0.7489409120082856,-1.3708743476867677 a0.39815835833549507,0.39815835833549507 0 0 0 -0.1582553474903107,-0.1582553474903107 l-1.3708743476867677,-0.7489409120082856 a0.39815835833549507,0.39815835833549507 0 0 1 0,-0.6975331239700319 l1.3708743476867677,-0.7499489078521729 a0.3961423666477204,0.3961423666477204 0 0 0 0.1582553474903107,-0.15623935580253603 l0.7489409120082856,-1.3708743476867677 a0.39815835833549507,0.39815835833549507 0 0 1 0.6975331239700319,0 l0.7499489078521729,1.3708743476867677 c0.03729584622383118,0.06652772569656373 0.0927356176376343,0.1209595012664795 0.1582553474903107,0.15724735164642337 " fill="url(#svg_83)" style="mix-blend-mode:lighten" id="svg_23" />
            <g id="svg_24" fill="url(#svg_83)">
                <mask id="b" fill="#fff" transform="translate(1580,434) translate(1715.52490234375,1351.3743896484375) scale(1.007995843887329) translate(-1715.52490234375,-1351.3743896484375) ">
                    <use xlink:href="#a" id="svg_25" />
                </mask>
                <path d="M1583.620680641436,428.4691301546956 l1.3708743476867677,0.7489409120082857 a0.39715036249160784,0.39715036249160784 0 0 1 0,0.6975331239700321 l-1.3708743476867677,0.7489409120082857 a0.4031983375549317,0.4031983375549317 0 0 0 -0.15825534749031073,0.1572473516464234 l-0.7489409120082857,1.3708743476867677 a0.39715036249160784,0.39715036249160784 0 0 1 -0.6975331239700321,0 l-0.749948907852173,-1.3708743476867677 a0.40017435002326984,0.40017435002326984 0 0 0 -0.15623935580253606,-0.1572473516464234 l-1.3708743476867677,-0.7489409120082857 a0.3981583583354952,0.3981583583354952 0 0 1 0,-0.6975331239700321 l1.3708743476867677,-0.749948907852173 a0.39311837911605846,0.39311837911605846 0 0 0 0.1572473516464234,-0.15825534749031073 l0.7509569036960604,-1.3708743476867677 a0.39715036249160784,0.39715036249160784 0 0 1 0.6975331239700321,0 l0.7489409120082857,1.3708743476867677 c0.03628785037994386,0.06652772569656375 0.09071962594985966,0.12095950126647952 0.15825534749031073,0.1572473516464234 " fill="url(#svg_83)" mask="url(#b)" id="svg_26" />
            </g>
            <path d="M1382.3349985714192,476.1755574541951 l2.7770285499095917,1.519049736738205 a0.39715036249160773,0.39715036249160773 0 0 1 0,0.6955171322822572 l-2.7770285499095917,1.519049736738205 a0.3961423666477204,0.3961423666477204 0 0 0 -0.1582553474903107,0.15724735164642337 l-1.51703374505043,2.7770285499095917 a0.3961423666477204,0.3961423666477204 0 0 1 -0.6975331239700319,0 l-1.5180417408943176,-2.7770285499095917 a0.3900943915843964,0.3900943915843964 0 0 0 -0.15926334333419803,-0.15724735164642337 l-2.7770285499095917,-1.519049736738205 a0.3961423666477204,0.3961423666477204 0 0 1 0,-0.6955171322822572 l2.7770285499095917,-1.519049736738205 a0.3931183791160584,0.3931183791160584 0 0 0 0.1582553474903107,-0.1582553474903107 l1.5180417408943176,-2.7770285499095917 a0.3961423666477204,0.3961423666477204 0 0 1 0.6955171322822572,0 l1.5200577325820923,2.778036545753479 c0.03830384206771851,0.06753572154045107 0.0927356176376343,0.12297549295425417 0.1612793350219727,0.15926334333419803 " fill="url(#svg_83)" style="mix-blend-mode:lighten" id="svg_27" />
            <path d="M1270.345652319693,330.5483818961049 l1.3103945970535278,0.7156770491600037 c0.2620789194107056,0.1451514015197754 0.2620789194107056,0.5241578388214112 0,0.6652772569656373 l-1.3103945970535278,0.7176930408477784 a0.38303842067718513,0.38303842067718513 0 0 0 -0.1511993765830994,0.1511993765830994 l-0.7156770491600037,1.3083786053657531 a0.38001443314552313,0.38001443314552313 0 0 1 -0.6652772569656373,0 l-0.7156770491600037,-1.3103945970535278 a0.3890863957405091,0.3890863957405091 0 0 0 -0.15321536827087404,-0.14918338489532473 l-1.3103945970535278,-0.7176930408477784 a0.38001443314552313,0.38001443314552313 0 0 1 0,-0.6652772569656373 l1.3103945970535278,-0.7156770491600037 a0.3931183791160584,0.3931183791160584 0 0 0 0.1511993765830994,-0.1511993765830994 l0.7156770491600037,-1.3103945970535278 a0.3790064373016358,0.3790064373016358 0 0 1 0.667293248653412,0 l0.7156770491600037,1.3103945970535278 a0.38707040405273446,0.38707040405273446 0 0 0 0.1511993765830994,0.1511993765830994 " fill="url(#svg_83)" style="mix-blend-mode:lighten" id="svg_28" />
            <path d="M1492.2861772268052,399.166690972891 l1.3708743476867677,0.7509569036960603 a0.39815835833549507,0.39815835833549507 0 0 1 0,0.6975331239700319 l-1.3708743476867677,0.7489409120082856 a0.4031983375549317,0.4031983375549317 0 0 0 -0.15724735164642337,0.1582553474903107 l-0.7489409120082856,1.3708743476867677 a0.39715036249160773,0.39715036249160773 0 0 1 -0.6975331239700319,0 l-0.7489409120082856,-1.3708743476867677 a0.39815835833549507,0.39815835833549507 0 0 0 -0.1582553474903107,-0.1582553474903107 l-1.3708743476867677,-0.7489409120082856 a0.39815835833549507,0.39815835833549507 0 0 1 0,-0.6975331239700319 l1.3708743476867677,-0.7499489078521729 a0.3961423666477204,0.3961423666477204 0 0 0 0.1582553474903107,-0.15623935580253603 l0.7489409120082856,-1.3708743476867677 a0.39815835833549507,0.39815835833549507 0 0 1 0.6975331239700319,0 l0.7499489078521729,1.3708743476867677 c0.03729584622383118,0.06652772569656373 0.0927356176376343,0.1209595012664795 0.1582553474903107,0.15724735164642337 " fill="url(#svg_83)" style="mix-blend-mode:lighten" id="svg_29" />
            <path stroke="#00A959" stroke-width="1.097" stroke-linecap="round" stroke-linejoin="round" d="M1711.9718154311413,443.3209409185315 l1.776088676929474,-0.5463337473869324 l1.776088676929474,0.5463337473869324 l-0.5473417432308197,-1.776088676929474 l0.5483497390747071,-1.776088676929474 l-1.776088676929474,0.5473417432308197 L1711.9718154311413,439.76876356467255 l0.5463337473869324,1.776088676929474 z" id="svg_30" fill="url(#svg_83)" />
            <g id="svg_31" fill="url(#svg_83)">
                <mask id="d" fill="#fff" transform="translate(1598,622) translate(1715.52490234375,1351.3743896484375) scale(1.007995843887329) translate(-1715.52490234375,-1351.3743896484375) ">
                    <use xlink:href="#c" id="svg_32" />
                </mask>
                <path d="M1604.769441442036,620.0115243976975 l2.7770285499095917,1.519049736738205 a0.39715036249160784,0.39715036249160784 0 0 1 0,0.6955171322822574 L1604.769441442036,623.7481649909878 a0.39311837911605846,0.39311837911605846 0 0 0 -0.15825534749031073,0.15825534749031073 L1603.0931443536513,626.6814328966999 a0.39715036249160784,0.39715036249160784 0 0 1 -0.6955171322822574,0 L1600.8755534970994,623.9044043467903 a0.39311837911605846,0.39311837911605846 0 0 0 -0.15825534749031073,-0.15825534749031073 L1597.9402695996994,622.226091266718 a0.39715036249160784,0.39715036249160784 0 0 1 0,-0.6955171322822574 L1600.719314141297,620.0115243976975 a0.39311837911605846,0.39311837911605846 0 0 0 0.1572473516464234,-0.15825534749031073 L1602.3956112296812,617.0752325044538 a0.39715036249160784,0.39715036249160784 0 0 1 0.6955171322822574,0 l1.5200577325820923,2.778036545753479 a0.39311837911605846,0.39311837911605846 0 0 0 0.15926334333419806,0.15825534749031073 " fill="url(#svg_83)" mask="url(#d)" id="svg_33" />
            </g>
            <g stroke="#E98333" stroke-width="1.097" stroke-linecap="round" stroke-linejoin="round" id="svg_34" fill="url(#svg_83)">
                <path d="M57.31841380646172,506.2964892612363 L55.83464392425958,507.77824315175064 M61.348381190323266,502.26450588568696 L59.8666272998089,503.7462597762013 M57.38998151137774,506.46079258378995 a1.8668083028793336,1.8668083028793336 0 0 0 2.6409491109848022,-2.6409491109848022 a1.8668083028793336,1.8668083028793336 0 0 0 -2.6409491109848022,2.6409491109848022 z" id="svg_35" fill="url(#svg_83)" />
            </g>
            <path d="M227.2513931482071,1199.69683027133 l1.3708743476867677,-0.7489409120082856 a0.39815835833549507,0.39815835833549507 0 0 0 0,-0.6975331239700319 l-1.3708743476867677,-0.7489409120082856 a0.4031983375549317,0.4031983375549317 0 0 1 -0.15724735164642337,-0.1582553474903107 l-0.7489409120082856,-1.3708743476867677 a0.39715036249160773,0.39715036249160773 0 0 0 -0.6975331239700319,0 l-0.7489409120082856,1.3708743476867677 a0.39815835833549507,0.39815835833549507 0 0 1 -0.1582553474903107,0.1582553474903107 l-1.3708743476867677,0.7489409120082856 a0.39815835833549507,0.39815835833549507 0 0 0 0,0.6975331239700319 l1.3708743476867677,0.7499489078521729 c0.06652772569656373,0.03729584622383118 0.1209595012664795,0.09071962594985965 0.1582553474903107,0.1582553474903107 l0.7489409120082856,1.3708743476867677 c0.1511993765830994,0.27518286538124087 0.5463337473869324,0.27518286538124087 0.6975331239700319,0 l0.7499489078521729,-1.3708743476867677 a0.40017435002326973,0.40017435002326973 0 0 1 0.1582553474903107,-0.15724735164642337 " fill="url(#svg_83)" style="mix-blend-mode:lighten" id="svg_36" />
            <path d="M1202.7454190452333,1131.159160862055 a2.930243918180466,2.930243918180466 0 1 0 -5.861495832204819,0.0030239875316619884 a2.930243918180466,2.930243918180466 0 0 0 5.861495832204819,-0.004031983375549318 M102.18027683451119,1033.2988923540972 l2.778036545753479,-1.5180417408943176 a0.39715036249160773,0.39715036249160773 0 0 0 0,-0.6975331239700319 l-2.778036545753479,-1.519049736738205 a0.4031983375549317,0.4031983375549317 0 0 1 -0.15724735164642337,-0.1582553474903107 l-1.519049736738205,-2.7770285499095917 a0.3961423666477204,0.3961423666477204 0 0 0 -0.6955171322822572,0 l-1.5200577325820923,2.7770285499095917 a0.39815835833549507,0.39815835833549507 0 0 1 -0.1582553474903107,0.1582553474903107 l-2.7770285499095917,1.519049736738205 a0.39715036249160773,0.39715036249160773 0 0 0 0,0.6955171322822572 l2.7770285499095917,1.5200577325820923 c0.06652772569656373,0.03628785037994385 0.1209595012664795,0.09071962594985965 0.1582553474903107,0.1582553474903107 l1.519049736738205,2.775012558221817 c0.1511993765830994,0.2761908612251282 0.5463337473869324,0.2761908612251282 0.6955171322822572,0 l1.5200577325820923,-2.7770285499095917 a0.40017435002326973,0.40017435002326973 0 0 1 0.15724735164642337,-0.15724735164642337 " fill="url(#svg_83)" style="mix-blend-mode:lighten" id="svg_37" />
            <path d="M193.98753029992523,789.442521809187 l1.3708743476867677,-0.7499489078521729 a0.39815835833549507,0.39815835833549507 0 0 0 0,-0.6975331239700319 l-1.3708743476867677,-0.7489409120082856 a0.4031983375549317,0.4031983375549317 0 0 1 -0.15724735164642337,-0.15724735164642337 l-0.7489409120082856,-1.3708743476867677 a0.39715036249160773,0.39715036249160773 0 0 0 -0.6975331239700319,0 l-0.7489409120082856,1.3708743476867677 a0.39815835833549507,0.39815835833549507 0 0 1 -0.1582553474903107,0.15926334333419803 l-1.3708743476867677,0.7479329161643983 a0.39815835833549507,0.39815835833549507 0 0 0 0,0.6975331239700319 l1.3708743476867677,0.7509569036960603 c0.06652772569656373,0.03729584622383118 0.1209595012664795,0.09071962594985965 0.1582553474903107,0.15724735164642337 l0.7489409120082856,1.3708743476867677 c0.1511993765830994,0.27518286538124087 0.5463337473869324,0.27518286538124087 0.6975331239700319,0 l0.7499489078521729,-1.3708743476867677 a0.40017435002326973,0.40017435002326973 0 0 1 0.1582553474903107,-0.15724735164642337 " fill="url(#svg_83)" style="mix-blend-mode:lighten" id="svg_38" />
            <path d="M1453.9027034874196,1059.5067842951678 l2.7770285499095917,-1.5180417408943176 a0.39815835833549507,0.39815835833549507 0 0 0 0,-0.6985411198139192 l-2.7770285499095917,-1.519049736738205 a0.3931183791160584,0.3931183791160584 0 0 1 -0.15724735164642337,-0.15724735164642337 l-1.5180417408943176,-2.7770285499095917 a0.3961423666477204,0.3961423666477204 0 0 0 -0.6975331239700319,0 l-1.5180417408943176,2.7770285499095917 a0.3931183791160584,0.3931183791160584 0 0 1 -0.1612793350219727,0.15724735164642337 l-2.775012558221817,1.519049736738205 a0.39715036249160773,0.39715036249160773 0 0 0 0,0.6975331239700319 l2.7770285499095917,1.519049736738205 a0.3931183791160584,0.3931183791160584 0 0 1 0.15926334333419803,0.1582553474903107 l1.5180417408943176,2.775012558221817 c0.1511993765830994,0.2761908612251282 0.5473417432308197,0.2761908612251282 0.6955171322822572,0 l1.5200577325820923,-2.7770285499095917 a0.3931183791160584,0.3931183791160584 0 0 1 0.1582553474903107,-0.15724735164642337 " fill="url(#svg_83)" style="mix-blend-mode:lighten" id="svg_39" />
            <path d="M1399.550559589171,1083.7773082242873 l1.3708743476867677,-0.7489409120082856 a0.39815835833549507,0.39815835833549507 0 0 0 0,-0.6975331239700319 l-1.3708743476867677,-0.7499489078521729 a0.40017435002326973,0.40017435002326973 0 0 1 -0.15724735164642337,-0.15623935580253603 l-0.7489409120082856,-1.3708743476867677 a0.39815835833549507,0.39815835833549507 0 0 0 -0.6975331239700319,0 l-0.7489409120082856,1.3708743476867677 a0.3961423666477204,0.3961423666477204 0 0 1 -0.1582553474903107,0.15724735164642337 l-1.3708743476867677,0.7509569036960603 a0.39815835833549507,0.39815835833549507 0 0 0 0,0.6975331239700319 l1.3708743476867677,0.7489409120082856 c0.06652772569656373,0.03628785037994385 0.1209595012664795,0.09071962594985965 0.1582553474903107,0.1582553474903107 l0.7489409120082856,1.3708743476867677 c0.1511993765830994,0.27518286538124087 0.5463337473869324,0.27518286538124087 0.6975331239700319,0 l0.7499489078521729,-1.3708743476867677 a0.4031983375549317,0.4031983375549317 0 0 1 0.1582553474903107,-0.1582553474903107 " fill="url(#svg_83)" style="mix-blend-mode:lighten" id="svg_40" />
            <path stroke="#E98333" stroke-width="1.097" stroke-linecap="round" stroke-linejoin="round" d="M400.56922253372613,891.0142310143377 l3.582417229175568,0.8951003093719484 l-0.8940923135280611,-3.582417229175568 z" id="svg_41" fill="url(#svg_83)" />
            <path fill="url(#svg_83)" style="mix-blend-mode:lighten" d="M512.6845682659382,740.3783241079713 l2.0341356129646297,-1.1128274116516115 l-2.0341356129646297,-1.1108114199638368 l-1.1128274116516115,-2.0341356129646297 l-1.1128274116516115,2.0341356129646297 L508.42477782967035,739.2644887004758 l2.0341356129646297,1.1138354074954986 l1.1128274116516115,2.0341356129646297 z" id="svg_42" />
            <path d="M165.6860309911007,1224.8181026926898 l2.7760205540657044,-1.5180417408943176 a0.39715036249160773,0.39715036249160773 0 0 0 0,-0.6975331239700319 l-2.778036545753479,-1.519049736738205 a0.40017435002326973,0.40017435002326973 0 0 1 -0.15724735164642337,-0.15724735164642337 l-1.519049736738205,-2.7770285499095917 a0.3961423666477204,0.3961423666477204 0 0 0 -0.6955171322822572,0 l-1.519049736738205,2.778036545753479 a0.40521432924270634,0.40521432924270634 0 0 1 -0.1612793350219727,0.1582553474903107 l-2.7740045623779297,1.519049736738205 a0.3961423666477204,0.3961423666477204 0 0 0 0,0.6955171322822572 l2.7760205540657044,1.5200577325820923 c0.06652772569656373,0.03628785037994385 0.1209595012664795,0.09071962594985965 0.1582553474903107,0.1582553474903107 l1.5200577325820923,2.7760205540657044 c0.1511993765830994,0.2761908612251282 0.5443177556991577,0.2761908612251282 0.6955171322822572,0 l1.519049736738205,-2.7770285499095917 a0.40017435002326973,0.40017435002326973 0 0 1 0.15724735164642337,-0.15926334333419803 " fill="url(#svg_83)" style="mix-blend-mode:lighten" id="svg_43" />
            <path d="M288.4931886394257,1325.7023587323094 a2.930243918180466,2.930243918180466 0 1 0 -5.861495832204819,0.0030239875316619884 a2.930243918180466,2.930243918180466 0 0 0 5.861495832204819,-0.004031983375549318 " fill="url(#svg_83)" style="mix-blend-mode:lighten" id="svg_44" />
            <path d="M37.54959931614343,1172.8155971065426 l-0.8537724797725679,1.6127933502197267 a0.44351817131042487,0.44351817131042487 0 0 1 -0.18143925189971927,0.18143925189971927 l-1.6127933502197267,0.8547804756164552 a0.4374701962471009,0.4374701962471009 0 0 0 0,0.7741408081054689 l1.6127933502197267,0.8537724797725679 c0.07660768413543702,0.040319833755493174 0.1411194181442261,0.10483156776428224 0.18143925189971927,0.18143925189971927 l0.8537724797725679,1.6127933502197267 c0.16430332255363467,0.31247871160507207 0.6098374855518341,0.31247871160507207 0.7761567997932435,0 l0.8517564880847932,-1.6127933502197267 a0.44351817131042487,0.44351817131042487 0 0 1 0.18143925189971927,-0.18143925189971927 l1.6127933502197267,-0.8537724797725679 a0.4374701962471009,0.4374701962471009 0 0 0 0,-0.7741408081054689 l-1.6127933502197267,-0.8537724797725679 a0.43948618793487554,0.43948618793487554 0 0 1 -0.18143925189971927,-0.18143925189971927 l-0.8527644839286805,-1.6127933502197267 a0.4384781920909882,0.4384781920909882 0 0 0 -0.7761567997932435,0 z" stroke="#7B63AB" stroke-width="1.097" stroke-linecap="round" stroke-linejoin="round" id="svg_45" fill="url(#svg_83)" />
            <path d="M1690.781726800942,1108.898580645647 l2.7770285499095917,-1.5180417408943176 a0.39815835833549507,0.39815835833549507 0 0 0 0,-0.6985411198139192 l-2.7770285499095917,-1.519049736738205 a0.3931183791160584,0.3931183791160584 0 0 1 -0.15724735164642337,-0.15724735164642337 l-1.5180417408943176,-2.7770285499095917 a0.3961423666477204,0.3961423666477204 0 0 0 -0.6975331239700319,0 l-1.5180417408943176,2.7770285499095917 a0.3931183791160584,0.3931183791160584 0 0 1 -0.1612793350219727,0.15724735164642337 l-2.775012558221817,1.519049736738205 a0.39715036249160773,0.39715036249160773 0 0 0 0,0.6975331239700319 l2.7770285499095917,1.519049736738205 a0.3931183791160584,0.3931183791160584 0 0 1 0.15926334333419803,0.1582553474903107 l1.5180417408943176,2.775012558221817 c0.1511993765830994,0.2761908612251282 0.5473417432308197,0.2761908612251282 0.6955171322822572,0 l1.5200577325820923,-2.7770285499095917 a0.3931183791160584,0.3931183791160584 0 0 1 0.1582553474903107,-0.15724735164642337 " fill="url(#svg_83)" style="mix-blend-mode:lighten" id="svg_46" />
            <path d="M1636.4295829026933,1154.3370172964003 l1.3708743476867677,-0.7489409120082856 a0.39815835833549507,0.39815835833549507 0 0 0 0,-0.6975331239700319 l-1.3708743476867677,-0.7499489078521729 a0.40017435002326973,0.40017435002326973 0 0 1 -0.15724735164642337,-0.15623935580253603 l-0.7489409120082856,-1.3708743476867677 a0.39815835833549507,0.39815835833549507 0 0 0 -0.6975331239700319,0 l-0.7489409120082856,1.3708743476867677 a0.3961423666477204,0.3961423666477204 0 0 1 -0.1582553474903107,0.15724735164642337 l-1.3708743476867677,0.7509569036960603 a0.39815835833549507,0.39815835833549507 0 0 0 0,0.6975331239700319 l1.3708743476867677,0.7489409120082856 c0.06652772569656373,0.03628785037994385 0.1209595012664795,0.09071962594985965 0.1582553474903107,0.1582553474903107 l0.7489409120082856,1.3708743476867677 c0.1511993765830994,0.27518286538124087 0.5463337473869324,0.27518286538124087 0.6975331239700319,0 l0.7499489078521729,-1.3708743476867677 a0.4031983375549317,0.4031983375549317 0 0 1 0.1582553474903107,-0.1582553474903107 " fill="url(#svg_83)" style="mix-blend-mode:lighten" id="svg_47" />
            <path d="M1611.0482475536103,1349.7138277295496 l1.3103945970535278,-0.7156770491600037 a0.38001443314552313,0.38001443314552313 0 0 0 0,-0.6652772569656373 l-1.3103945970535278,-0.7176930408477784 a0.38303842067718513,0.38303842067718513 0 0 1 -0.1511993765830994,-0.1511993765830994 l-0.7156770491600037,-1.3103945970535278 a0.38001443314552313,0.38001443314552313 0 0 0 -0.6652772569656373,0 l-0.7156770491600037,1.3103945970535278 a0.3890863957405091,0.3890863957405091 0 0 1 -0.15321536827087404,0.1511993765830994 l-1.3103945970535278,0.7156770491600037 a0.38001443314552313,0.38001443314552313 0 0 0 0,0.667293248653412 l1.3103945970535278,0.7156770491600037 a0.3931183791160584,0.3931183791160584 0 0 1 0.1511993765830994,0.1511993765830994 l0.7156770491600037,1.3103945970535278 a0.3790064373016358,0.3790064373016358 0 0 0 0.667293248653412,0 l0.7156770491600037,-1.3103945970535278 a0.38707040405273446,0.38707040405273446 0 0 1 0.1511993765830994,-0.1511993765830994 " fill="url(#svg_83)" style="mix-blend-mode:lighten" id="svg_48" />
            <path d="M1662.6374748437638,1249.0886266218092 l1.3708743476867677,-0.7489409120082856 a0.39815835833549507,0.39815835833549507 0 0 0 0,-0.6975331239700319 l-1.3708743476867677,-0.7489409120082856 a0.4031983375549317,0.4031983375549317 0 0 1 -0.15724735164642337,-0.1582553474903107 l-0.7489409120082856,-1.3708743476867677 a0.39715036249160773,0.39715036249160773 0 0 0 -0.6975331239700319,0 l-0.7489409120082856,1.3708743476867677 a0.39815835833549507,0.39815835833549507 0 0 1 -0.1582553474903107,0.1582553474903107 l-1.3708743476867677,0.7489409120082856 a0.39815835833549507,0.39815835833549507 0 0 0 0,0.6975331239700319 l1.3708743476867677,0.7499489078521729 c0.06652772569656373,0.03729584622383118 0.1209595012664795,0.09071962594985965 0.1582553474903107,0.1582553474903107 l0.7489409120082856,1.3708743476867677 c0.1511993765830994,0.27518286538124087 0.5463337473869324,0.27518286538124087 0.6975331239700319,0 l0.7499489078521729,-1.3708743476867677 a0.40017435002326973,0.40017435002326973 0 0 1 0.1582553474903107,-0.15724735164642337 " fill="url(#svg_83)" style="mix-blend-mode:lighten" id="svg_49" />
            <g id="svg_50" fill="url(#svg_83)">
                <mask id="f" fill="#fff" transform="matrix(1.007995843887329,0,0,-1.007995843887329,1585.9723349452252,983.0785234199429) " stroke-width="0">
                    <use xlink:href="#e" id="svg_51" />
                </mask>
                <path d="M1590.6766515486472,981.2742108593847 l1.3708743476867677,-0.7489409120082857 a0.39715036249160784,-0.39715036249160784 0 0 1 0,-0.6975331239700321 l-1.3708743476867677,-0.7489409120082857 a0.4031983375549317,-0.4031983375549317 0 0 0 -0.15825534749031073,-0.1572473516464234 l-0.7489409120082857,-1.3708743476867677 a0.39715036249160784,-0.39715036249160784 0 0 1 -0.6975331239700321,0 l-0.749948907852173,1.3708743476867677 a0.40017435002326984,-0.40017435002326984 0 0 0 -0.15623935580253606,0.1572473516464234 l-1.3708743476867677,0.7489409120082857 a0.3981583583354952,-0.3981583583354952 0 0 1 0,0.6975331239700321 l1.3708743476867677,0.749948907852173 a0.39311837911605846,-0.39311837911605846 0 0 0 0.1572473516464234,0.15825534749031073 l0.7509569036960604,1.3708743476867677 a0.39715036249160784,-0.39715036249160784 0 0 1 0.6975331239700321,0 l0.7489409120082857,-1.3708743476867677 c0.03628785037994386,-0.06652772569656375 0.09071962594985966,-0.12095950126647952 0.15825534749031073,-0.1572473516464234 " fill="url(#svg_83)" mask="url(#f)" stroke-width="0" id="svg_52" />
            </g>
            <g stroke="#7B63AB" stroke-width="1.097" stroke-linecap="round" stroke-linejoin="round" id="svg_53" fill="url(#svg_83)">
                <path d="M1159.590092980885,911.5108185039426 l2.802228446006775,-2.802228446006775 M1151.5261262297863,919.5747852550412 l2.802228446006775,-2.802228446006775 M1157.1779589264625,909.4000752068424 c0,-1.004971856355667 -5.526841212034225,4.521869355678558 -4.521869355678558,4.521869355678558 c-1.0039638605117798,0 4.522877351522446,5.527849207878113 4.522877351522446,4.522877351522446 c0,1.0039638605117798 5.526841212034225,-4.523885347366334 4.521869355678558,-4.523885347366334 c1.004971856355667,0 -4.521869355678558,-5.526841212034225 -4.521869355678558,-4.521869355678558 z" id="svg_54" fill="url(#svg_83)" />
            </g>
            <path d="M1382.3349985714192,766.1799937239552 l2.7770285499095917,-1.519049736738205 a0.39715036249160773,0.39715036249160773 0 0 0 0,-0.6975331239700319 l-2.7770285499095917,-1.5180417408943176 a0.3961423666477204,0.3961423666477204 0 0 1 -0.1582553474903107,-0.15724735164642337 l-1.51703374505043,-2.7770285499095917 a0.3961423666477204,0.3961423666477204 0 0 0 -0.6975331239700319,0 l-1.5180417408943176,2.7770285499095917 a0.3900943915843964,0.3900943915843964 0 0 1 -0.15926334333419803,0.1582553474903107 l-2.7770285499095917,1.519049736738205 a0.3961423666477204,0.3961423666477204 0 0 0 0,0.6955171322822572 l2.7770285499095917,1.5200577325820923 a0.3931183791160584,0.3931183791160584 0 0 1 0.1582553474903107,0.1582553474903107 l1.5180417408943176,2.7760205540657044 c0.1511993765830994,0.2761908612251282 0.5473417432308197,0.2761908612251282 0.6955171322822572,0 l1.5200577325820923,-2.7770285499095917 a0.39815835833549507,0.39815835833549507 0 0 1 0.1612793350219727,-0.15926334333419803 " fill="url(#svg_83)" style="mix-blend-mode:lighten" id="svg_55" />
            <path d="M1270.345652319693,959.6194361451531 l1.3103945970535278,-0.7156770491600037 a0.38001443314552313,0.38001443314552313 0 0 0 0,-0.6652772569656373 l-1.3103945970535278,-0.7176930408477784 a0.38303842067718513,0.38303842067718513 0 0 1 -0.1511993765830994,-0.1511993765830994 l-0.7156770491600037,-1.3103945970535278 a0.38001443314552313,0.38001443314552313 0 0 0 -0.6652772569656373,0 l-0.7156770491600037,1.3103945970535278 a0.3890863957405091,0.3890863957405091 0 0 1 -0.15321536827087404,0.1511993765830994 l-1.3103945970535278,0.7156770491600037 a0.38001443314552313,0.38001443314552313 0 0 0 0,0.667293248653412 l1.3103945970535278,0.7156770491600037 a0.3931183791160584,0.3931183791160584 0 0 1 0.1511993765830994,0.1511993765830994 l0.7156770491600037,1.3103945970535278 a0.3790064373016358,0.3790064373016358 0 0 0 0.667293248653412,0 l0.7156770491600037,-1.3103945970535278 a0.38707040405273446,0.38707040405273446 0 0 1 0.1511993765830994,-0.1511993765830994 " fill="url(#svg_83)" style="mix-blend-mode:lighten" id="svg_56" />
            <path d="M1492.2861772268052,870.0821893201734 l1.3708743476867677,-0.7499489078521729 a0.39815835833549507,0.39815835833549507 0 0 0 0,-0.6975331239700319 l-1.3708743476867677,-0.7489409120082856 a0.4031983375549317,0.4031983375549317 0 0 1 -0.15724735164642337,-0.15724735164642337 l-0.7489409120082856,-1.3708743476867677 a0.39715036249160773,0.39715036249160773 0 0 0 -0.6975331239700319,0 l-0.7489409120082856,1.3708743476867677 a0.39815835833549507,0.39815835833549507 0 0 1 -0.1582553474903107,0.15926334333419803 l-1.3708743476867677,0.7479329161643983 a0.39815835833549507,0.39815835833549507 0 0 0 0,0.6975331239700319 l1.3708743476867677,0.7509569036960603 c0.06652772569656373,0.03729584622383118 0.1209595012664795,0.09071962594985965 0.1582553474903107,0.15724735164642337 l0.7489409120082856,1.3708743476867677 c0.1511993765830994,0.27518286538124087 0.5463337473869324,0.27518286538124087 0.6975331239700319,0 l0.7499489078521729,-1.3708743476867677 a0.40017435002326973,0.40017435002326973 0 0 1 0.1582553474903107,-0.15724735164642337 " fill="url(#svg_83)" style="mix-blend-mode:lighten" id="svg_57" />
            <path stroke="#00A959" stroke-width="1.097" stroke-linecap="round" stroke-linejoin="round" d="M1711.9718154311413,807.6872465835477 l1.776088676929474,0.5463337473869324 l1.776088676929474,-0.5463337473869324 l-0.5473417432308197,1.776088676929474 l0.5483497390747071,1.776088676929474 l-1.776088676929474,-0.5473417432308197 l-1.776088676929474,0.5483497390747071 l0.5463337473869324,-1.776088676929474 z" id="svg_58" fill="url(#svg_83)" />
            <g stroke="#E98333" stroke-width="1.097" stroke-linecap="round" stroke-linejoin="round" id="svg_59" fill="url(#svg_83)">
                <path d="M57.31841380646172,715.9596247898007 L55.83464392425958,714.4778708992864 M61.348381190323266,719.99160816535 L59.8666272998089,718.5098542748357 M57.38998151137774,715.795321467247 a1.8668083028793336,1.8668083028793336 0 0 1 2.6409491109848022,2.6409491109848022 a1.8668083028793336,1.8668083028793336 0 0 1 -2.6409491109848022,-2.6409491109848022 z" id="svg_60" fill="url(#svg_83)" />
            </g>
            <g opacity=".5" id="svg_61" fill="url(#svg_83)">
                <path d="M362.5143554394478,435.5230850702191 c4.330350145339966,3.6408809881210327 4.888779842853546,10.1031423432827 1.2468908588886263,14.434500484466554 a10.241237773895264,10.241237773895264 0 0 1 -10.145478168725967,3.3868660354614257 c-1.1632272038459777,1.666217129945755 -1.8244724774360657,3.3888820271492004 -1.5119937658309937,4.965387526988983 c0.15926334333419803,0.802364691734314 -0.38001443314552313,0.7257570075988771 -0.6592292819023133,0.36287850379943853 c-1.3980902354717255,-1.816408510684967 -3.0179395565986633,-4.669036748886108 -2.9050440220832825,-8.203070177555084 c-3.598545162677765,-3.7275686306953433 -3.868688048839569,-9.64652022600174 -0.4606541006565094,-13.698663518428802 c3.64188898396492,-4.331358141183853 10.104150339126585,-4.888779842853546 14.434500484466554,-1.2478988547325134 " fill="url(#svg_83)" id="svg_62" />
                <path d="M359.5538716459507,442.1657776814366 h-1.224714950323105 l0.012095950126647952,-0.5947175478935243 c0,-0.7862367582321167 -0.7086210782527924,-3.0391074693202973 -1.8174165065288543,-3.0391074693202973 c-0.3527985453605652,0 -0.7086210782527924,0.18143925189971927 -0.9444921057224275,0.4636780881881714 a1.0281557607650758,1.0281557607650758 0 0 0 -0.25401495265960694,0.8567964673042299 c0.1511993765830994,0.8971163010597231 0.16934330177307133,1.380954306125641 -0.38303842067718513,1.9857518124580382 c-0.6047975063323976,0.6602372777462007 -0.8971163010597231,0.9374361348152161 -1.4474820318222046,0.9374361348152161 h-1.212619000196457 c-0.6420933525562288,-0.004031983375549318 -1.209595012664795,0.5644776725769044 -1.209595012664795,1.2075790209770203 v2.4232220087051393 c0,0.6431013484001161 0.5675016601085663,1.2116110043525696 1.209595012664795,1.2116110043525696 h1.0422677025794984 l0.8739323966503144,0.5211338512897492 a0.6249574232101441,0.6249574232101441 0 0 0 0.31449470329284673,0.08467165088653567 h3.8334081943035123 c0.685437173843384,0 1.7206489055156708,-0.3023987531661988 1.816408510684967,-1.1390353035926817 l0.5947175478935243,-3.603585141897202 c0.012095950126647952,-0.04838380050659181 0.012095950126647952,-0.08467165088653567 0.012095950126647952,-0.1209595012664795 c-0.020159916877746587,-0.7096290740966797 -0.5090379011631012,-1.1934670791625976 -1.2116110043525696,-1.1934670791625976 h-0.006047975063323977 zm0,4.8464440174102785 c-0.03023987531661988,0.4173102793693543 -0.7711168205738069,0.6047975063323976 -1.212619000196457,0.6047975063323976 h-3.8344161901474 l-1.0120278272628784,-0.6047975063323976 v-3.6358410089015964 c0.8235326044559479,0 1.2781387300491334,-0.4535981297492981 1.8950321865081787,-1.1390353035926817 c0.7459169244766236,-0.8235326044559479 0.691485148906708,-1.552313599586487 0.5342377972602844,-2.501845684528351 c-0.04838380050659181,-0.3023987531661988 0.3023987531661988,-0.6047975063323976 0.6047975063323976,-0.6047975063323976 c0.5039979219436646,0 1.2116110043525696,1.6531131839752198 1.2116110043525696,2.422214012861252 l-0.012095950126647952,0.6249574232101441 c0,0.4183182752132416 0.20159916877746584,0.5876615769863129 0.6179014523029328,0.5876615769863129 h1.2116110043525696 c0.38303842067718513,0 0.5947175478935243,0.21873509812355044 0.6047975063323976,0.6047975063323976 l-0.6047975063323976,3.6358410089015964 l-0.006047975063323977,0.006047975063323977 z" fill="url(#svg_83)" id="svg_63" />
                <path d="M390.0477619152302,476.6533474841977 c0,-4.550093239307404 -1.580537483215332,-8.72924400806427 -4.219470602512359,-12.025390417575835 c-2.1339272015094757,-2.239766765117645 -4.467437580108643,-0.8416765296459199 -5.110538928508759,9.606200392246246 c-0.7721248164176943,12.531404331207275 -7.368449618816376,4.163022835254669 -12.626155940532684,10.06483850121498 c-5.244602375745774,5.890727711677552 -17.456472024440767,-4.820236125469208 -14.3034610247612,1.4414340567588808 c3.2457466173172,6.058055021762848 9.636440267562866,10.180758023262024 16.991785940408707,10.180758023262024 c10.640404128074646,0 19.267840555906293,-8.626428431987762 19.267840555906293,-19.267840555906293 " fill="url(#svg_83)" id="svg_64" />
                <path d="M370.77891336348006,457.3865149241353 c10.641412123918533,0 19.267840555906293,8.626428431987762 19.267840555906293,19.266832560062408 c0,10.641412123918533 -8.625420436143875,19.267840555906293 -19.266832560062408,19.267840555906293 s-19.266832560062408,-8.626428431987762 -19.266832560062408,-19.267840555906293 c0,-10.640404128074646 8.625420436143875,-19.266832560062408 19.266832560062408,-19.266832560062408 z" stroke="#DBE7F0" stroke-width="1.097" stroke-linecap="round" stroke-linejoin="round" id="svg_65" fill="url(#svg_83)" />
                <path d="M370.77891336348006,457.3865149241353 c10.641412123918533,0 19.267840555906293,8.626428431987762 19.267840555906293,19.266832560062408 c0,10.641412123918533 -8.625420436143875,19.267840555906293 -19.266832560062408,19.267840555906293 s-19.266832560062408,-8.626428431987762 -19.266832560062408,-19.267840555906293 c0,-10.640404128074646 8.625420436143875,-19.266832560062408 19.266832560062408,-19.266832560062408 z" stroke="#DBE7F0" stroke-width="1.097" stroke-linecap="round" stroke-linejoin="round" id="svg_66" fill="url(#svg_83)" />
                <path d="M353.03213853599965,469.1417624555493 c3.6892647886276246,1.6178333294391631 8.184926252365111,3.1721629207134248 11.845967157363892,3.1721629207134248 c7.637584509134292,0 9.374361348152162,-4.687180674076081 18.39894813847542,-4.860555959224701 c1.6279132878780367,-0.03023987531661988 3.0945472407341,-0.050399792194366466 4.400909854412078,-0.06047975063323976 M363.30664017274324,494.418266236868 c1.3870022811889648,-3.5481453704833985 4.220478598356247,-8.534700810194016 9.729175885200501,-11.341969235420228 c6.582212860584259,-3.352594176769257 11.297617418289185,-0.5745576310157776 16.183373273611068,-0.8205086169242859 " stroke="#DBE7F0" stroke-width="1.097" stroke-linecap="round" stroke-linejoin="round" id="svg_67" fill="url(#svg_83)" />
                <path d="M354.56026023533286,487.0598965764905 c2.971571747779846,-0.407230320930481 7.856319607257843,-1.6954490094184878 11.880239016056061,-5.719368418216706 c6.24957423210144,-6.24957423210144 7.983327083587646,-6.420933525562287 11.803631331920625,-6.420933525562287 c3.1278111035823826,0 7.771647956371307,3.2598585591316223 11.733071622848511,3.3898900229930877 M362.9981934445137,459.0214841829206 c4.01182345867157,0.6209254398345948 8.856251484394074,1.877896257162094 11.94777473759651,4.439213696479797 c2.4141500461101533,2.000871750116348 6.5801968688964845,1.8627763195037843 10.729107762336731,0.970699997663498 M359.0045139110321,461.4023703661824 c1.478729902982712,0.32054267835617073 2.8405322880744936,0.6683012444972993 3.7255526390075686,0.9545720641613007 c2.9201639597415925,0.9434841098785401 5.496601336717606,1.2872106926441194 4.752700403928756,3.359650147676468 c-0.9455001015663147,2.6308691525459293 -5.316170080661774,1.1460912744998932 -8.235326044559478,0.20159916877746584 c-0.9575960516929627,-0.30844672822952274 -2.1550951142311097,-0.8769563841819764 -3.3263862848281858,-1.5301376910209656 M351.63908827974745,474.4387806151772 c3.852560115337372,0.5503657307624817 9.217113996505738,1.846648386001587 9.767479727268219,4.818220133781433 c0.3790064373016358,2.0563115215301515 -3.880783998966217,3.209458766937256 -8.783675783634186,3.858608090400696 M365.80142988636436,495.27203871664057 c3.346546201705933,-3.5511693580150605 11.541552412509917,-10.735155737400055 21.265688318490984,-8.32201368713379 h0.002015991687774659 " stroke="#DBE7F0" stroke-width="1.097" stroke-linecap="round" stroke-linejoin="round" id="svg_68" fill="url(#svg_83)" />
            </g>
            <g opacity=".5" id="svg_69" fill="url(#svg_83)">
                <path d="M1530.6454590659375,294.04482040556917 c-40.86415151119232,-53.22621254062653 -44.34375316429138,39.46706927156449 -123.50267478060722,23.892525487661363 c22.181956540584565,28.13517999458313 56.57175074648857,46.19644952535629 95.18101555490495,46.19644952535629 c66.9027001504898,0 121.14094051837922,-54.23521638035774 121.14094051837922,-121.13892452669144 c0,-39.668668440341946 -19.06724938297272,-74.87897126317024 -48.5349998831749,-96.97726414871215 l-5.080299053192139,2.021031666994095 c22.216228399276734,27.43260689139366 -19.548063400506972,171.60625244259836 -39.20499035215378,146.00517399954796 " fill="url(#svg_83)" id="svg_70" />
                <path d="M1381.1848753135437,241.1159666388894 c0.11087954282760622,-7.910751382827758 0.9979158854484558,-15.882990512132645 2.7175567951202395,-23.80583784508705 M1426.603152047419,337.29590607508663 a119.94142546415328,119.94142546415328 0 0 1 -8.600220540046692,-7.570048787593842 M1542.4803382690186,356.81473759612095 a121.22359617757797,121.22359617757797 0 0 1 -30.897088606834412,6.585236848115922 M1616.52468897345,203.59533734187133 c1.5593695704936983,4.535981297492981 2.8485962548255923,9.168730195999146 3.8606240820884707,13.872038803577423 M1581.7972161598439,151.79140693696982 a119.91118558883666,119.91118558883666 0 0 1 10.284581595182418,10.156566123008728 M1481.892732080483,123.57659527071962 a120.49179119491578,120.49179119491578 0 0 1 23.21011230134964,-1.6863770468235015 " stroke="#DBE7F0" stroke-width="1.097" stroke-linecap="round" stroke-linejoin="round" id="svg_71" fill="url(#svg_83)" />
                <path d="M1426.9267187133066,339.3794334844018 c4.561181193590165,4.019887425422668 10.04266259264946,7.773663948059082 16.76095489215851,10.926674947738647 c0.2792148487567902,0.1310394597053528 0.5080299053192139,0.33263862848281867 0.67938919878006,0.5916935603618623 c0.7398689494132996,1.1329873285293581 3.433233844280243,4.02694339632988 4.289022315740585,4.936155647516251 c0.1763992726802826,0.1895032186508179 0.38707040405273446,0.3255826575756074 0.6289894065856935,0.41327829599380494 l8.910683259963989,3.243730625629425 c0.2560309443473816,0.0957596051692963 0.4858539967536927,0.2519989609718323 0.667293248653412,0.4576301131248474 l5.77783217716217,6.50661317229271 c0.38303842067718513,0.4273902378082276 0.9575960516929627,0.6249574232101441 1.519049736738205,0.5271818263530731 l6.1034148347377775,-1.0735155737400055 a1.5825534749031067,1.5825534749031067 0 0 1 0.6531813068389893,0.0171359293460846 l4.314222211837769,0.9858199353218079 c0.22175908565521243,0.050399792194366466 0.4535981297492981,0.05543977141380311 0.6773732070922853,0.012095950126647952 l4.9976433939933775,-0.9475160932540894 c0.21470311474800113,-0.040319833755493174 0.43343821287155154,-0.03830384206771851 0.6451173400878908,0.005039979219436647 l9.591080454587937,2.000871750116348 c0.3467505702972413,0.0725757007598877 0.7086210782527924,0.03023987531661988 1.0311797482967375,-0.1209595012664795 l5.0581231446266175,-2.3385503578186038 c0.2177271022796631,-0.09878359270095828 0.45561412143707275,-0.15321536827087404 0.6955171322822572,-0.15321536827087404 l8.006510987997055,0.008063966751098635 c0.31247871160507207,0 0.6128614730834961,-0.08668764257431033 0.8769563841819764,-0.24998296928405764 l5.044011202812194,-3.144947032928467 c1.0644436111450195,-0.6652772569656373 0.5604456892013551,-2.308310482501984 -0.6955171322822572,-2.259926681995392 l-3.9009439158439636,0.14918338489532473 c-0.2671188986301422,0.010079958438873294 -0.5342377972602844,-0.043343821287155165 -0.7731328122615816,-0.15926334333419803 l-9.535640683174135,-4.543037268400192 a1.6531131839752198,1.6531131839752198 0 0 0 -1.1027474532127381,-0.11087954282760622 l-5.405881710767747,1.326522530555725 c-0.37799844145774847,0.09071962594985965 -0.7761567997932435,0.050399792194366466 -1.1259313576221466,-0.12398348879814149 l-15.438464344978334,-7.645648475885391 a1.6954490094184878,1.6954490094184878 0 0 0 -0.48786998844146734,-0.1511993765830994 l-12.368109004497528,-1.8597523319721223 a1.6269052920341494,1.6269052920341494 0 0 1 -0.7428929369449616,-0.3074387323856354 l-10.029558646678923,-7.4914251117706305 a1.6430332255363465,1.6430332255363465 0 0 0 -1.026139769077301,-0.32860664510726934 l-11.76734348154068,0.27719885706901554 a1.7196409096717835,1.7196409096717835 0 0 1 -0.3729584622383118,-0.03326386284828187 l-10.725075778961182,-2.203478914737701 c-1.657145167350769,-0.3407025952339173 -2.701428861618042,1.7438328099250793 -1.4293381066322328,2.8627081966400145 " fill="url(#svg_83)" id="svg_72" />
                <path d="M1426.9267187133066,339.3794334844018 c4.561181193590165,4.019887425422668 10.04266259264946,7.773663948059082 16.76095489215851,10.926674947738647 c0.2792148487567902,0.1310394597053528 0.5080299053192139,0.33263862848281867 0.67938919878006,0.5916935603618623 c0.7398689494132996,1.1329873285293581 3.433233844280243,4.02694339632988 4.289022315740585,4.936155647516251 c0.1763992726802826,0.1895032186508179 0.38707040405273446,0.3255826575756074 0.6289894065856935,0.41327829599380494 l8.910683259963989,3.243730625629425 c0.2560309443473816,0.0957596051692963 0.4858539967536927,0.2519989609718323 0.667293248653412,0.4576301131248474 l5.77783217716217,6.50661317229271 c0.38303842067718513,0.4273902378082276 0.9575960516929627,0.6249574232101441 1.519049736738205,0.5271818263530731 l6.1034148347377775,-1.0735155737400055 a1.5825534749031067,1.5825534749031067 0 0 1 0.6531813068389893,0.0171359293460846 l4.314222211837769,0.9858199353218079 c0.22175908565521243,0.050399792194366466 0.4535981297492981,0.05543977141380311 0.6773732070922853,0.012095950126647952 l4.9976433939933775,-0.9475160932540894 c0.21470311474800113,-0.040319833755493174 0.43343821287155154,-0.03830384206771851 0.6451173400878908,0.005039979219436647 l9.591080454587937,2.000871750116348 c0.3467505702972413,0.0725757007598877 0.7086210782527924,0.03023987531661988 1.0311797482967375,-0.1209595012664795 l5.0581231446266175,-2.3385503578186038 c0.2177271022796631,-0.09878359270095828 0.45561412143707275,-0.15321536827087404 0.6955171322822572,-0.15321536827087404 l8.006510987997055,0.008063966751098635 c0.31247871160507207,0 0.6128614730834961,-0.08668764257431033 0.8769563841819764,-0.24998296928405764 l5.044011202812194,-3.144947032928467 c1.0644436111450195,-0.6652772569656373 0.5604456892013551,-2.308310482501984 -0.6955171322822572,-2.259926681995392 l-3.9009439158439636,0.14918338489532473 c-0.2671188986301422,0.010079958438873294 -0.5342377972602844,-0.043343821287155165 -0.7731328122615816,-0.15926334333419803 l-9.535640683174135,-4.543037268400192 a1.6531131839752198,1.6531131839752198 0 0 0 -1.1027474532127381,-0.11087954282760622 l-5.405881710767747,1.326522530555725 c-0.37799844145774847,0.09071962594985965 -0.7761567997932435,0.050399792194366466 -1.1259313576221466,-0.12398348879814149 l-15.438464344978334,-7.645648475885391 a1.6954490094184878,1.6954490094184878 0 0 0 -0.48786998844146734,-0.1511993765830994 l-12.368109004497528,-1.8597523319721223 a1.6269052920341494,1.6269052920341494 0 0 1 -0.7428929369449616,-0.3074387323856354 l-10.029558646678923,-7.4914251117706305 a1.6430332255363465,1.6430332255363465 0 0 0 -1.026139769077301,-0.32860664510726934 l-11.76734348154068,0.27719885706901554 a1.7196409096717835,1.7196409096717835 0 0 1 -0.3729584622383118,-0.03326386284828187 l-10.725075778961182,-2.203478914737701 c-1.657145167350769,-0.3407025952339173 -2.701428861618042,1.7438328099250793 -1.4293381066322328,2.8627081966400145 z" stroke="#DBE7F0" stroke-width="1.097" stroke-linecap="round" stroke-linejoin="round" id="svg_73" fill="url(#svg_83)" />
                <path d="M1594.788266595864,162.22718790873535 c8.557884714603425,9.67676010131836 19.88574200820923,26.381267226219176 23.08108883333206,39.513437080383305 a1.6369852504730227,1.6369852504730227 0 0 1 -0.4173102793693543,1.5250977118015288 c-3.739664580821991,3.929167799472809 -21.599334942817688,20.425019784688953 -23.49638312101364,22.17590856552124 c-0.11894350957870485,0.11087954282760622 -0.23587102746963504,0.1864792311191559 -0.38102242898941047,0.2560309443473816 l-10.61621222782135,5.186138616800307 c-0.12599948048591614,0.062495742321014416 -0.2620789194107056,0.11087954282760622 -0.40017435002326973,0.1350714430809021 l-5.564137058258056,1.1138354074954986 a1.6430332255363465,1.6430332255363465 0 0 0 -1.0281557607650758,0.6753572154045107 l-6.58926883149147,9.40460122346878 c-0.483838005065918,0.6935011405944826 -1.41522616481781,0.9092122511863708 -2.1540871183872223,0.4979499468803406 l-24.638442412137987,-13.68858355998993 a1.6531131839752198,1.6531131839752198 0 0 1 -0.8295805795192719,-1.191451087474823 l-3.118739140987396,-20.1982207198143 a1.6531131839752198,1.6531131839752198 0 0 1 0.8245406002998352,-1.6954490094184878 l16.004958009243012,-8.930843176841735 c0.39715036249160773,-0.2237750773429871 0.685437173843384,-0.5997575271129609 0.793292729139328,-1.0422677025794984 l6.791875996112824,-27.251167639493943 a1.6450492172241211,1.6450492172241211 0 0 1 1.280154721736908,-1.219674971103668 l28.903272827625273,-5.775816185474397 a1.6299292795658111,1.6299292795658111 0 0 1 1.5543295912742614,0.5120618886947632 " fill="url(#svg_83)" id="svg_74" />
                <path d="M1594.788266595864,162.22718790873535 c8.557884714603425,9.67676010131836 19.88574200820923,26.381267226219176 23.08108883333206,39.513437080383305 a1.6369852504730227,1.6369852504730227 0 0 1 -0.4173102793693543,1.5250977118015288 c-3.739664580821991,3.929167799472809 -21.599334942817688,20.425019784688953 -23.49638312101364,22.17590856552124 c-0.11894350957870485,0.11087954282760622 -0.23587102746963504,0.1864792311191559 -0.38102242898941047,0.2560309443473816 l-10.61621222782135,5.186138616800307 c-0.12599948048591614,0.062495742321014416 -0.2620789194107056,0.11087954282760622 -0.40017435002326973,0.1350714430809021 l-5.564137058258056,1.1138354074954986 a1.6430332255363465,1.6430332255363465 0 0 0 -1.0281557607650758,0.6753572154045107 l-6.58926883149147,9.40460122346878 c-0.483838005065918,0.6935011405944826 -1.41522616481781,0.9092122511863708 -2.1540871183872223,0.4979499468803406 l-24.638442412137987,-13.68858355998993 a1.6531131839752198,1.6531131839752198 0 0 1 -0.8295805795192719,-1.191451087474823 l-3.118739140987396,-20.1982207198143 a1.6531131839752198,1.6531131839752198 0 0 1 0.8245406002998352,-1.6954490094184878 l16.004958009243012,-8.930843176841735 c0.39715036249160773,-0.2237750773429871 0.685437173843384,-0.5997575271129609 0.793292729139328,-1.0422677025794984 l6.791875996112824,-27.251167639493943 a1.6450492172241211,1.6450492172241211 0 0 1 1.280154721736908,-1.219674971103668 l28.903272827625273,-5.775816185474397 a1.6299292795658111,1.6299292795658111 0 0 1 1.5543295912742614,0.5120618886947632 z" stroke="#DBE7F0" stroke-width="1.097" stroke-linecap="round" stroke-linejoin="round" id="svg_75" fill="url(#svg_83)" />
                <path d="M1381.1778193426364,268.85097228344927 a116.45375984430314,116.45375984430314 0 0 1 -2.590549318790436,-26.423603051662443 c0.020159916877746587,-1.380954306125641 1.663193142414093,-2.1067113137245177 2.721588778495789,-1.219674971103668 l7.9692151417732235,6.689060420036316 c0.345742574453354,0.29231879472732547 0.7983327083587647,0.42638224196434027 1.2468908588886263,0.3759824497699738 l13.001130394458771,-1.4716739320755003 c0.37094247055053714,-0.040319833755493174 0.7459169244766236,0.045359812974929824 1.0614196236133575,0.241919002532959 l16.00193402171135,10.01242271733284 c0.16732731008529667,0.10583956360816957 0.3558225328922272,0.18143925189971927 0.5503657307624817,0.22175908565521243 l16.309372754096984,3.2608665549755096 c0.3790064373016358,0.07761567997932435 0.7701088247299196,0.018143925189971925 1.1087954282760621,-0.16430332255363467 l14.075653964042663,-7.596256679534911 a1.6490812005996704,1.6490812005996704 0 0 1 2.015991687774658,0.3548145370483399 l10.241237773895264,11.496192599534988 c0.24595098590850833,0.2721588778495789 0.39110238742828374,0.6209254398345948 0.4173102793693543,0.9878359270095824 l1.882936236381531,28.036396401882172 c0.03326386284828187,0.5060139136314392 -0.16329532670974733,0.9979158854484558 -0.5392777764797211,1.3366024889945984 l-13.520248254060746,12.251181486606598 a1.663193142414093,1.663193142414093 0 0 0 -0.480814017534256,0.7791807873249054 l-3.9029599075317383,13.974854379653932 a1.6510971922874451,1.6510971922874451 0 0 1 -1.350714430809021,1.1894350957870483 l-17.041177736759185,2.4766457884311674 a1.6652091341018678,1.6652091341018678 0 0 1 -0.4737580466270447,0 l-7.2313621840477,-1.0563796443939208 a1.6369852504730227,1.6369852504730227 0 0 0 -1.6531131839752198,0.784220766544342 c-0.5503657307624817,0.9192922096252442 -1.4011142230033875,2.348630316257477 -2.1006633386611937,3.527985453605652 a1.6611771507263184,1.6611771507263184 0 0 1 -2.5351095473766327,0.38303842067718513 c-7.52166498708725,-6.78179603767395 -13.887158741235732,-14.24600526165962 -19.129745125293734,-22.196068482398985 h21.808998078346253 c7.069074853181839,0 -3.532017436981201,-3.6943047678470613 -11.080898311853408,-3.2124827544689176 c-0.9999318771362304,0.06350373816490175 -2.026071646213531,0.1280154721736908 -3.0643073654174806,0.1895032186508179 c-0.2519989609718323,-2.463541842460632 -2.872788155078888,-6.599348789930343 -8.685900186777117,-6.665876515626908 a17.589527475833894,17.589527475833894 0 0 0 1.1491152620315552,-1.876888261318207 c11.400432994365692,-18.962417815208436 -3.5511693580150605,-28.814569193363187 -16.181357281923294,-26.683665979385378 z" fill="url(#svg_83)" id="svg_76" />
                <path d="M1397.23216914823,307.10038257559785 c5.241578388214111,7.950063220739365 11.608080138206482,15.41225645303726 19.129745125293734,22.196068482398985 a1.6611771507263184,1.6611771507263184 0 0 0 2.5341015515327454,-0.38303842067718513 c0.6995491156578065,-1.179355137348175 1.5492896120548247,-2.6086932439804076 2.098647346973419,-3.527985453605652 a1.6369852504730227,1.6369852504730227 0 0 1 1.6531131839752198,-0.784220766544342 l7.2313621840477,1.0563796443939208 c0.15623935580253603,0.023183904409408575 0.31751869082450873,0.023183904409408575 0.4737580466270447,0 l17.041177736759185,-2.4776537842750552 a1.6510971922874451,1.6510971922874451 0 0 0 1.350714430809021,-1.1894350957870483 l3.903967903375626,-13.973846383810043 a1.663193142414093,1.663193142414093 0 0 1 0.480814017534256,-0.7791807873249054 l13.520248254060746,-12.251181486606598 c0.3759824497699738,-0.33868660354614266 0.572541639328003,-0.8305885753631592 0.5392777764797211,-1.3355944931507113 l-1.882936236381531,-28.034380410194398 a1.6500891964435578,1.6500891964435578 0 0 0 -0.4173102793693543,-0.9878359270095824 l-10.241237773895264,-11.497200595378876 a1.6490812005996704,1.6490812005996704 0 0 0 -2.015991687774658,-0.3527985453605652 l-14.075653964042663,7.595248683691025 c-0.33868660354614266,0.18143925189971927 -0.7297889909744264,0.241919002532959 -1.1087954282760621,0.165311318397522 l-16.309372754096984,-3.2598585591316223 a1.6984729969501495,1.6984729969501495 0 0 1 -0.5503657307624817,-0.22175908565521243 l-16.00193402171135,-10.01242271733284 a1.6762970883846287,1.6762970883846287 0 0 0 -1.0604116277694702,-0.241919002532959 l-13.000122398614884,1.4716739320755003 a1.6531131839752198,1.6531131839752198 0 0 1 -1.2468908588886263,-0.3759824497699738 l-7.970223137617111,-6.689060420036316 c-1.0583956360816955,-0.8870363426208497 -2.701428861618042,-0.1612793350219727 -2.721588778495789,1.219674971103668 a116.45375984430314,116.45375984430314 0 0 0 2.594581302165985,26.442754972696306 M1479.9765319812532,122.11197730955132 c-40.61517653775215,7.005571115016937 -85.17564880847931,38.13248277425766 -97.37441451120377,93.42105481147767 c-0.25804693603515627,1.1753231539726257 0.8043806834220887,2.2296868066787723 1.9807118332386018,1.975671854019165 c1.219674971103668,-0.26510290694236754 2.614741219043732,-0.5947175478935243 3.515889503479004,-0.814460641860962 a1.6400092380046847,1.6400092380046847 0 0 1 1.6127933502197267,0.4999659385681153 l9.086074536800384,10.090038397312163 c0.3931183791160584,0.4384781920909882 0.9918679103851318,0.6320133941173555 1.568441533088684,0.5100458970069885 l23.641534522533416,-5.036955231904983 c0.40118234586715706,-0.08769563841819765 0.7559968829154969,-0.3195346825122834 0.9979158854484558,-0.652173310995102 l14.785283038139342,-20.59133909893036 a1.6531131839752198,1.6531131839752198 0 0 0 -0.11087954282760622,-2.06437548828125 l-7.596256679534911,-8.472205067873 a1.6460572130680085,1.6460572130680085 0 0 1 -0.3931183791160584,-1.4011142230033875 l2.451445892333984,-13.330745035409928 c0.09777559685707095,-0.5312138097286224 0.44855815052986153,-0.9817879519462586 0.9404601223468781,-1.2045550334453583 l14.343780858516693,-6.51770112657547 a1.6510971922874451,1.6510971922874451 0 0 1 2.330486391067505,1.3910342645645142 l0.7489409120082856,11.21193777155876 c0.03023987531661988,0.41327829599380494 0.21167912721633914,0.8003487000465394 0.5140778803825379,1.0886355113983155 l19.597455196857453,18.569299436092376 c0.41630228352546694,0.3900943915843964 1.004971856355667,0.5412937681674957 1.5573535788059234,0.3961423666477204 l16.680315224647522,-4.3999018585681915 c0.16329532670974733,-0.043343821287155165 0.32860664510726934,-0.06047975063323976 0.49593395519256595,-0.052415783882141125 c2.1641670768260957,0.10079958438873292 17.56432757973671,0.8003487000465394 17.788102657079694,0.2590549318790436 c0.21873509812355044,-0.5291978180408478 1.7135929346084597,-16.079549701690674 1.9776878457069398,-18.834402343034743 a1.59263343334198,1.59263343334198 0 0 1 0.2842548279762268,-0.7691008288860323 l9.586040475368499,-13.784343165159227 a1.6531131839752198,1.6531131839752198 0 0 0 -0.08769563841819765,-2.000871750116348 l-16.25494097852707,-19.450287803649903 a1.6430332255363465,1.6430332255363465 0 0 0 -0.6683012444972993,-0.477790030002594 l-20.01073349285126,-7.801887831687927 a1.6390012421607971,1.6390012421607971 0 0 1 -1.0352117316722869,-1.3134185845851898 c-0.25703894019126894,-1.9313200368881225 -0.8225246086120606,-6.327189912080765 -1.0342037358283998,-8.94092313528061 a1.6531131839752198,1.6531131839752198 0 0 0 -1.9222480742931367,-1.5019138073921203 z" stroke="#DBE7F0" stroke-width="1.097" stroke-linecap="round" stroke-linejoin="round" id="svg_77" fill="url(#svg_83)" />
                <path d="M1619.5829483638042,218.29594872912415 l-4.893819822072984,11.17464192533493 c-0.19756718540191653,0.44654215884208687 -0.5745576310157776,0.78119677901268 -1.0432756984233855,0.9213082013130188 l-12.277389378547667,3.6529769382476807 c-0.2822388362884522,0.08467165088653567 -0.5372617847919464,0.24393499422073367 -0.7398689494132996,0.4606541006565094 l-11.024450544595718,11.926606824874879 c-0.32860664510726934,0.35683052873611454 -0.483838005065918,0.8426845254898072 -0.42335825443267827,1.3245065388679504 l2.091591376066208,16.687371195554732 c0.05745576310157777,0.46771007156372074 -0.08467165088653567,0.9374361348152161 -0.39513437080383307,1.2902346801757814 l-9.300777651548385,10.65754005742073 a1.6430332255363465,1.6430332255363465 0 0 1 -1.2872106926441194,0.5644776725769044 l-16.47770806002617,-0.43343821287155154 a1.6531131839752198,1.6531131839752198 0 0 0 -1.693433017730713,1.5593695704936983 l-1.0846035280227662,19.38980805301666 c-0.010079958438873294,0.1995831770896912 -0.05745576310157777,0.3961423666477204 -0.1411194181442261,0.5775816185474396 l-7.665808392763139,17.242776905536655 a1.663193142414093,1.663193142414093 0 0 0 -0.020159916877746587,1.2902346801757814 l6.037895104885101,14.936482414722443 c0.18547123527526857,0.4667020757198334 0.1511993765830994,0.9938839020729064 -0.0957596051692963,1.4313540983200073 l-8.366365504264833,14.800402975797653 c-0.08063966751098635,0.14414340567588807 -0.17135929346084597,0.2661109027862549 -0.29231879472732547,0.37699044561386114 c-0.8567964673042299,0.8124446501731873 -4.763788358211517,4.550093239307404 -7.547872879028321,7.43094536113739 c-1.1511312537193297,1.1924590833187103 -0.020159916877746587,3.1348670744895935 1.59263343334198,2.744772682905197 c26.36110730934143,-6.317109953641892 91.91914100408553,-51.67289094519615 78.20233356046676,-139.57718450307846 c-0.25703894019126894,-1.6379932463169098 -2.489749734401703,-1.9454319787025454 -3.15502699136734,-0.42940622949600227 " fill="url(#svg_83)" id="svg_78" />
                <path d="M1619.5829483638042,218.29594872912415 l-4.893819822072984,11.17464192533493 c-0.19756718540191653,0.44654215884208687 -0.5745576310157776,0.78119677901268 -1.0432756984233855,0.9213082013130188 l-12.277389378547667,3.6529769382476807 c-0.2822388362884522,0.08467165088653567 -0.5372617847919464,0.24393499422073367 -0.7398689494132996,0.4606541006565094 l-11.024450544595718,11.926606824874879 c-0.32860664510726934,0.35683052873611454 -0.483838005065918,0.8426845254898072 -0.42335825443267827,1.3245065388679504 l2.091591376066208,16.687371195554732 c0.05745576310157777,0.46771007156372074 -0.08467165088653567,0.9374361348152161 -0.39513437080383307,1.2902346801757814 l-9.300777651548385,10.65754005742073 a1.6430332255363465,1.6430332255363465 0 0 1 -1.2872106926441194,0.5644776725769044 l-16.47770806002617,-0.43343821287155154 a1.6531131839752198,1.6531131839752198 0 0 0 -1.693433017730713,1.5593695704936983 l-1.0846035280227662,19.38980805301666 c-0.010079958438873294,0.1995831770896912 -0.05745576310157777,0.3961423666477204 -0.1411194181442261,0.5775816185474396 l-7.665808392763139,17.242776905536655 a1.663193142414093,1.663193142414093 0 0 0 -0.020159916877746587,1.2902346801757814 l6.037895104885101,14.936482414722443 c0.18547123527526857,0.4667020757198334 0.1511993765830994,0.9938839020729064 -0.0957596051692963,1.4313540983200073 l-8.366365504264833,14.800402975797653 c-0.08063966751098635,0.14414340567588807 -0.17135929346084597,0.2661109027862549 -0.29231879472732547,0.37699044561386114 c-0.8567964673042299,0.8124446501731873 -4.763788358211517,4.550093239307404 -7.547872879028321,7.43094536113739 c-1.1511312537193297,1.1924590833187103 -0.020159916877746587,3.1348670744895935 1.59263343334198,2.744772682905197 c26.36110730934143,-6.317109953641892 91.91914100408553,-51.67289094519615 78.20233356046676,-139.57718450307846 c-0.25703894019126894,-1.6379932463169098 -2.489749734401703,-1.9454319787025454 -3.15502699136734,-0.42940622949600227 zM1506.619878126883,120.1030415926839 l14.358900796175002,-0.8094206626415253 c0.39715036249160773,-0.023183904409408575 0.7892607457637787,0.09878359270095828 1.1017394573688506,0.342718586921692 l2.215574864864349,1.7156089262962342 c0.39513437080383307,0.30542274069786074 0.9071962594985962,0.41630228352546694 1.3950662479400635,0.29836676979064947 l8.786699771165848,-2.099655342817307 c0.43343821287155154,-0.10281557607650757 0.8870363426208497,-0.02721588778495789 1.2650347840785978,0.20865513968467714 l3.67212885928154,2.3214144284725187 c0.3467505702972413,0.22175908565521243 0.7660768413543703,0.3023987531661988 1.1692751789093019,0.2318390440940857 l5.587320962667465,-0.9858199353218079 c0.30844672822952274,-0.05644776725769044 0.6249574232101441,-0.020159916877746587 0.9132442345619202,0.09676760101318363 l1.965591895580292,0.8094206626415253 c0.36691048717498786,0.1511993765830994 0.6683012444972993,0.42940622949600227 0.8436925213336945,0.7832127707004547 l1.8486643776893616,3.675152846813202 c0.23385503578186037,0.4636780881881714 0.6723332278728487,0.7892607457637787 1.1843951165676116,0.8799803717136384 l3.786032389640808,0.6773732070922853 c0.39715036249160773,0.07055970907211305 0.7519648995399476,0.2822388362884522 1.0029558646678924,0.5977415354251863 l2.8405322880744936,3.578385245800018 c0.10583956360816957,0.13305545139312744 0.2318390440940857,0.2489749734401703 0.3729584622383118,0.342718586921692 l6.456213380098343,4.331358141183853 c0.21167912721633914,0.14313540983200074 0.38303842067718513,0.3225586700439454 0.5090379011631012,0.5443177556991577 c0.4415021796226502,0.7761567997932435 1.5452576286792754,2.6842929322719575 1.810360535621643,2.913107988834381 c0.2892948071956635,0.2519989609718323 9.97512687110901,8.174846293926239 12.664459782600403,10.375301221132277 c0.2822388362884522,0.2318390440940857 0.17740726852416994,0.688461161375046 -0.17841526436805727,0.7711168205738069 c-0.8870363426208497,0.21167912721633914 -2.2347267858982085,0.5181098637580872 -2.909076005458832,0.6118534772396088 a1.2116110043525696,1.2116110043525696 0 0 1 -0.6924931447505953,-0.10785555529594422 l-8.739323966503143,-4.167054818630219 c-0.10886355113983155,-0.050399792194366466 -0.22175908565521243,-0.0927356176376343 -0.33868660354614266,-0.1209595012664795 l-9.614264358997346,-2.220614844083786 a1.6127933502197267,1.6127933502197267 0 0 0 -0.5896775686740876,-0.03023987531661988 l-9.636440267562866,1.2821707134246827 a1.6531131839752198,1.6531131839752198 0 0 1 -1.1491152620315552,-0.27417486953735354 l-14.696579403877259,-10.069878480434419 a1.6390012421607971,1.6390012421607971 0 0 0 -0.5201258554458619,-0.23587102746963504 l-17.082505566358567,-4.431149729728698 a1.6531131839752198,1.6531131839752198 0 0 1 -0.8870363426208497,-0.5806056060791016 l-4.459373613357545,-5.705256476402283 a1.6531131839752198,1.6531131839752198 0 0 0 -0.6189094481468201,-0.48686199259758 l-4.227534569263458,-1.9151921033859252 c-1.5704575247764587,-0.7156770491600037 -1.1329873285293581,-3.054227406978607 0.5896775686740876,-3.1509950079917908 z" stroke="#DBE7F0" stroke-width="1.097" stroke-linecap="round" stroke-linejoin="round" id="svg_79" fill="url(#svg_83)" />
                <path d="M1347.3545188009973,143.21941028055198 c11.004290627717971,-3.6771688385009766 22.905697556495667,2.263958665370941 26.582866394996643,13.268249293088914 c2.5865173354148863,7.738384093523026 0.4112623043060303,15.916254374980925 -4.933131659984589,21.37253587794304 c1.6672251257896424,3.814256273269653 3.9765436041355136,6.811027917146682 7.069074853181839,7.953087208271027 c1.5724735164642334,0.5816136019229889 0.8567964673042299,1.4414340567588808 -0.07459169244766237,1.5422336411476136 c-4.67206073641777,0.5039979219436646 -11.393377023458482,0.2822388362884522 -17.45848801612854,-3.6993447470664975 c-10.36723725438118,2.305286494970322 -21.011673365831374,-3.558225328922272 -24.453979172706607,-13.85389487838745 c-3.6741448509693146,-11.005298623561858 2.2659746570587163,-22.906705552339556 13.268249293088914,-26.58387439084053 " fill="url(#svg_83)" id="svg_80" />
                <path d="M1361.0179024648899,157.79704617485052 c-0.688461161375046,-0.8346205587387086 -1.657145167350769,-1.2599948048591614 -2.913107988834381,-1.3245065388679504 c-1.2872106926441194,0 -2.239766765117645,0.5564137058258057 -2.916131976366043,1.3255145347118378 c-0.21873509812355044,0.24796697759628297 -0.4031983375549317,0.46166209650039675 -0.5543977141380311,0.6431013484001161 a0.6572132902145387,0.6572132902145387 0 0 1 -1.007995843887329,0 c-0.1511993765830994,-0.18143925189971927 -0.336670611858368,-0.39513437080383307 -0.5574217016696931,-0.6431013484001161 c-0.6904771530628206,-0.7691008288860323 -1.5502976078987123,-1.3245065388679504 -2.9151239805221563,-1.3245065388679504 c-1.2579788131713867,0.06652772569656373 -2.239766765117645,0.5039979219436646 -2.913107988834381,1.3255145347118378 c-0.691485148906708,0.808412666797638 -1.0342037358283998,1.6974650011062624 -1.0634356153011322,2.6510290694236756 c0,0.6874531655311586 0.1209595012664795,2.011959704399109 0.8890523343086244,3.5380654120445247 c0.7388609535694123,1.4676419486999512 2.933267905712128,3.7245446431636813 6.639668623685837,6.72131628704071 c0.241919002532959,0.1965591895580292 0.5997575271129609,0.1965591895580292 0.8436925213336945,0 c3.695312763690949,-2.9967716438770293 5.923991574525833,-5.241578388214111 6.6527725696563715,-6.72131628704071 c0.7559968829154969,-1.5382016577720643 0.8749403924942017,-2.8758121426105503 0.8749403924942017,-3.5380654120445247 c-0.02721588778495789,-0.9535640683174134 -0.3729584622383118,-1.8426164026260377 -1.0604116277694702,-2.677236961364746 v0.025199896097183233 z" fill="url(#svg_83)" id="svg_81" />
                <path d="M1615.9642432842486,195.7400257304574 h70.11115092158319 c11.241169651031493,0 6.422949517250061,-4.175118785381318 -7.713184197425843,-2.888916088581085 c-0.7055970907211304,0.062495742321014416 -1.4011142230033875,0.11087954282760622 -2.0936073677539824,0.15422336411476137 c-1.586585458278656,-1.7156089262962342 -5.511721274375915,-3.8122402815818788 -9.34412147283554,-2.633893140077591 c-0.6451173400878908,-4.603517019033432 -8.285725836753846,-10.138422197818755 -15.482816162109375,-5.330282022476196 c-0.5241578388214112,-7.153746504068375 -7.724272151708603,-14.01618220925331 -15.311456868648529,-7.910751382827758 c2.2649666612148285,-11.588928217172622 -0.7882527499198914,-24.35015560078621 -18.48160379767418,-22.82908987236023 c-10.892403089046478,0.9374361348152161 -15.80537483215332,6.572132902145385 -17.34156049823761,13.35594493150711 M1407.960268914723,303.88789982112894 c-0.9999318771362304,0.06350373816490175 -2.026071646213531,0.1280154721736908 -3.0643073654174806,0.1895032186508179 c-0.2519989609718323,-2.463541842460632 -2.872788155078888,-6.599348789930343 -8.685900186777117,-6.665876515626908 a17.589527475833894,17.589527475833894 0 0 0 1.1491152620315552,-1.876888261318207 c16.704507124900818,-27.78540543675423 -23.173824450969693,-36.0126675145626 -29.415334716320036,-15.631999547004698 c-1.3204745554924011,4.314222211837769 -1.8627763195037843,8.53268481850624 -1.852696361064911,12.259245453357698 c-1.990791791677475,-1.2700747632980347 -4.704316603422165,-2.086551396846771 -8.40466934633255,-2.086551396846771 c-10.079958438873291,0 -13.381144827604293,8.833067579984665 -12.362061029434203,13.057578161716462 c-1.816408510684967,-1.1329873285293581 -3.8505441236495974,-2.232710794210434 -8.359309533357619,-1.8143925189971923 c-8.672796240806578,0.8033726875782013 -17.345592481613156,5.7828721563816075 -4.175118785381318,5.7828721563816075 h86.25218836975097 c7.069074853181839,0 -3.532017436981201,-3.695312763690949 -11.080898311853408,-3.2134907503128054 z" stroke="#DBE7F0" stroke-width="1.097" stroke-linecap="round" stroke-linejoin="round" id="svg_82" fill="url(#svg_83)" />
            </g>
        </g>
    </g>
</svg>